<svg id="bg-2" xmlns="http://www.w3.org/2000/svg" viewBox="0 0 279.24 173.73"><defs><style>.cls-1{fill:#ffbe9d;}.cls-2{fill:#eb996e;}.cls-3{fill:#263238;}.cls-4{fill:#455a64;}.cls-5{fill:#ff725e;}.cls-6{opacity:0.4;}.cls-7{fill:#fff;}.cls-8{opacity:0.3;}.cls-9{opacity:0.8;}.cls-10{opacity:0.6;}.cls-11{fill:#ff8daa;opacity:0.1;isolation:isolate;}</style></defs><title>about-us</title><g id="freepik--Character--inject-2"><path class="cls-1" d="M221.66,113.48c-.55-.59-.31-.4-5.41,2.73,0,0,7.24-4.51,4.9-4.78a9.33,9.33,0,0,0-2.92,1.19c1.8-1.26,2.36-2.17,2.09-2.66-.47-.84-4.87,1.63-6.9,2.82a46,46,0,0,0,5.42-3.62c.8-.89-.65-1-1.86-.67-1.37.33-9,3.35-11.28,4.11a1.41,1.41,0,0,1-1.95-.87c-.47-3.42-2.67-5.83-3.58-6.21a1.06,1.06,0,0,0-1.15,1.66,12.46,12.46,0,0,1,1.12,3.31,7.94,7.94,0,0,1,.17,2.79c-.12,1.08-2.49,5.58-3.45,6.32l9.2,8s10.57-8.94,12.61-10.62C221.18,115,222.08,113.93,221.66,113.48Z" transform="translate(-6.95 -26.6)"/><path class="cls-2" d="M213.71,117.54c.08.15,1.85-.83,3.94-2.18s3.72-2.56,3.62-2.7a34.25,34.25,0,0,0-7.56,4.88Z" transform="translate(-6.95 -26.6)"/><path class="cls-2" d="M212.17,115.53a20,20,0,0,0,4.33-2.1c2.32-1.3,4.12-2.47,4-2.62a20,20,0,0,0-4.33,2.1C213.89,114.21,212.08,115.39,212.17,115.53Z" transform="translate(-6.95 -26.6)"/><path class="cls-2" d="M210.57,113.43a34.94,34.94,0,0,0,8-4.36c-.08-.15-1.94.71-4.14,1.91S210.49,113.28,210.57,113.43Z" transform="translate(-6.95 -26.6)"/><path class="cls-3" d="M165.73,137.49,194.23,117l12.9,11.48L182,151.6c-10,9-13.47,11.3-30,1.88l-10.49-6,3.87,47.84H98c-5.22-.16,6.77-13.24,6-13.24L93.55,147l-16.11,10.8L92.7,169.7l-7.44,15.78L61,170.69c-9.46-6.29-8.19-18.55-.12-26.54,14.53-14.41,25.47-24.47,37.9-26.6a87.75,87.75,0,0,1,9.56-1.56,112.12,112.12,0,0,1,15.59-1,41,41,0,0,1,4.55.45,36.48,36.48,0,0,1,16.16,6.64Z" transform="translate(-6.95 -26.6)"/><path class="cls-4" d="M95.83,153.85a1.42,1.42,0,0,1-.08-.18l-.19-.51c-.16-.44-.4-1.09-.66-1.89-.56-1.64-1.3-3.84-2.12-6.27s-1.62-4.65-2.22-6.23l-.72-1.88c-.08-.2-.14-.37-.19-.51a.41.41,0,0,1-.05-.18l.09.16.23.5c.2.43.46,1.07.79,1.85.64,1.59,1.45,3.77,2.28,6.22s1.54,4.68,2.06,6.29l.6,1.92c.07.2.11.38.16.52A.4.4,0,0,1,95.83,153.85Z" transform="translate(-6.95 -26.6)"/><path class="cls-4" d="M127.72,123.32a.67.67,0,0,1,0,.2v1a4.79,4.79,0,0,1,0,.49c0,.4-.09.8-.17,1.2,0,.21-.09.44-.14.68s-.13.47-.19.72c-.15.54-.33,1.06-.53,1.58a16.77,16.77,0,0,1-4.34,6.18,14.44,14.44,0,0,1-1.3,1c-.21.15-.4.31-.61.43l-.59.37c-.35.2-.7.39-1.06.56l-.44.21-.4.15-.53.2-.19.06.18-.1.51-.23.38-.17.43-.23a10.29,10.29,0,0,0,1-.58l.58-.37c.2-.13.4-.29.61-.44a14.11,14.11,0,0,0,1.26-1,17,17,0,0,0,4.29-6.12c.2-.54.4-1,.55-1.55.06-.24.15-.48.2-.71s.1-.46.15-.67c.09-.39.15-.78.2-1.17,0-.17,0-.33.06-.48s0-.28,0-.4a4.32,4.32,0,0,1,.05-.57A.71.71,0,0,1,127.72,123.32Z" transform="translate(-6.95 -26.6)"/><path class="cls-4" d="M139.47,133.12c.06,0,.58,3.33,1.17,7.45s1,7.47,1,7.48-.58-3.33-1.17-7.45S139.42,133.13,139.47,133.12Z" transform="translate(-6.95 -26.6)"/><path class="cls-4" d="M78,157.83s-.74-.25-2-.46a8.45,8.45,0,0,0-1-.13c-.36,0-.76,0-1.17-.05a14.09,14.09,0,0,0-2.66.31,13.24,13.24,0,0,0-2.53.86c-.37.18-.73.34-1,.53a8.39,8.39,0,0,0-.86.55c-1,.72-1.56,1.29-1.6,1.25a3.41,3.41,0,0,1,.37-.39,3.89,3.89,0,0,1,.47-.44,12.12,12.12,0,0,1,1.55-1.11,9.33,9.33,0,0,1,1-.57,12.78,12.78,0,0,1,2.57-.88,13.53,13.53,0,0,1,2.7-.3,6.79,6.79,0,0,1,1.19.07,8.81,8.81,0,0,1,1,.15c.31.05.58.14.82.2a4,4,0,0,1,.61.2A2.21,2.21,0,0,1,78,157.83Z" transform="translate(-6.95 -26.6)"/><path class="cls-4" d="M166.39,146.9a1.2,1.2,0,0,1-.21-.34,6.75,6.75,0,0,1-.46-1,10.91,10.91,0,0,1-.6-5.46,11.88,11.88,0,0,1,.35-1.57,8.09,8.09,0,0,1,.38-1,1.31,1.31,0,0,1,.19-.35s-.19.53-.43,1.4a13.67,13.67,0,0,0-.3,1.55,11.72,11.72,0,0,0,.14,3.86,11.47,11.47,0,0,0,.4,1.53C166.16,146.38,166.42,146.88,166.39,146.9Z" transform="translate(-6.95 -26.6)"/><path class="cls-3" d="M109.55,67.29c4-4.05,10.27-6.44,15.47-4.17,3.5,1.53,5.87,4.82,8.94,7.09,2.24,1.65,5,2.93,6.18,5.45,1,2.22.53,4.81.28,7.25s-.07,5.26,1.82,6.82a22.53,22.53,0,0,0,3.41,1.79,9.1,9.1,0,0,1,4.07,6.34,27.13,27.13,0,0,1,0,7.74L139,107.65l-1.76-3-.62,4.65-13.68,1.24Z" transform="translate(-6.95 -26.6)"/><path class="cls-1" d="M107.78,71.71l0,3-.84,44.71c-.08,5.18,4.88,9.6,10.43,9.63h0c5.61,0,7.9-4.17,8.05-9.4.18-5.5.45-11.28.45-11.28s7.11-1,8.83-10.17c.86-4.57.84-12.11.62-18.28a9.76,9.76,0,0,0-10.09-9.41l-.41,0Z" transform="translate(-6.95 -26.6)"/><path class="cls-3" d="M132.17,85A1.21,1.21,0,0,1,131,86.21a1.15,1.15,0,0,1-1.2-1.08v0a1.2,1.2,0,0,1,1.2-1.17A1.14,1.14,0,0,1,132.17,85Z" transform="translate(-6.95 -26.6)"/><path class="cls-3" d="M133.56,83.78c-.16.14-1-.54-2.31-.58s-2.22.58-2.36.43.09-.35.51-.64a3.24,3.24,0,0,1,1.89-.52,3.08,3.08,0,0,1,1.83.64C133.51,83.43,133.63,83.71,133.56,83.78Z" transform="translate(-6.95 -26.6)"/><path class="cls-3" d="M119.48,84.9a1.19,1.19,0,0,1-1.17,1.16A1.12,1.12,0,0,1,117.12,85v0a1.2,1.2,0,0,1,1.18-1.16,1.12,1.12,0,0,1,1.19,1.07Z" transform="translate(-6.95 -26.6)"/><path class="cls-3" d="M121,83.67c-.15.15-1-.54-2.3-.57s-2.23.58-2.36.42.09-.35.5-.64a3.37,3.37,0,0,1,1.9-.52,3.19,3.19,0,0,1,1.83.64C121,83.32,121.1,83.6,121,83.67Z" transform="translate(-6.95 -26.6)"/><path class="cls-3" d="M125.39,93.25a8.12,8.12,0,0,1,2.08-.32c.33,0,.64-.08.7-.3a1.63,1.63,0,0,0-.2-1l-.89-2.5a43.68,43.68,0,0,1-2-6.55A42.62,42.62,0,0,1,127.6,89c.29.87.58,1.71.85,2.52a1.88,1.88,0,0,1,.13,1.28.8.8,0,0,1-.55.46,2.57,2.57,0,0,1-.55.06A9.07,9.07,0,0,1,125.39,93.25Z" transform="translate(-6.95 -26.6)"/><path class="cls-2" d="M125.85,108.35a23.39,23.39,0,0,1-12.27-3.64s2.82,6.43,12.09,5.82Z" transform="translate(-6.95 -26.6)"/><path class="cls-2" d="M124.77,96.3a2.32,2.32,0,0,0-2-.91,2.14,2.14,0,0,0-1.47.74,1.31,1.31,0,0,0-.14,1.51,1.51,1.51,0,0,0,1.65.47,4.75,4.75,0,0,0,1.66-.92,1.67,1.67,0,0,0,.38-.37.44.44,0,0,0,0-.47" transform="translate(-6.95 -26.6)"/><path class="cls-3" d="M121.61,94c.21,0,.17,1.38,1.33,2.39s2.64.9,2.64,1.1-.33.26-1,.26a3.42,3.42,0,0,1-2.2-.84,3,3,0,0,1-1-2C121.35,94.35,121.52,94,121.61,94Z" transform="translate(-6.95 -26.6)"/><path class="cls-3" d="M121.43,80c-.14.34-1.4.14-2.91.28s-2.72.52-2.91.2c-.08-.15.14-.47.64-.8a4.74,4.74,0,0,1,2.17-.69,4.85,4.85,0,0,1,2.26.33C121.22,79.52,121.48,79.8,121.43,80Z" transform="translate(-6.95 -26.6)"/><path class="cls-3" d="M133.6,81.2c-.28.28-1.33,0-2.62-.1s-2.39.13-2.62-.18c-.11-.15.07-.43.55-.69a4.21,4.21,0,0,1,2.15-.42,4.15,4.15,0,0,1,2.08.63C133.59,80.76,133.73,81.06,133.6,81.2Z" transform="translate(-6.95 -26.6)"/><path class="cls-3" d="M114.38,66.25c1.67,2.25,2.47,4,3.47,8,.49,2-1.1,3.33-2.68,4.53a1.26,1.26,0,0,1-1.78-.24,1.34,1.34,0,0,1-.23-.5h0s.55,6.12-1.66,8.87a5.25,5.25,0,0,0-.84,4.32,7.27,7.27,0,0,0,2,3.74,9.24,9.24,0,0,1,1.51,10.41,25.8,25.8,0,0,0-1.4,2.51,3.81,3.81,0,0,0-.3,1.63,1.27,1.27,0,0,1-1.09,1.36,100.79,100.79,0,0,1-23,.69,1.25,1.25,0,0,1-1.12-1c-.6-2.54.4-5.3,1.68-7.63,1.43-2.61,3.25-5.11,3.75-8,.46-2.76-.29-5.73.79-8.3,1.37-3.16,5.07-4.65,6.92-7.55,1.75-2.73,1.59-6.31,3.19-9.16a8.72,8.72,0,0,1,10.75-3.66" transform="translate(-6.95 -26.6)"/><path class="cls-3" d="M114.81,69.64c2.91,1.5,4.25,5,7.07,6.69,2.57,1.5,5.78,1.1,8.72.66L130.27,75a5.24,5.24,0,0,0,1.09,1.59,1.79,1.79,0,0,0,1.79.42c1-.4,1.11-1.75.86-2.79a9.62,9.62,0,0,0-2.57-4.35,13,13,0,0,0-17-1.35" transform="translate(-6.95 -26.6)"/><path class="cls-3" d="M103.54,77.2a5.91,5.91,0,0,0-1.35-6.46,6.64,6.64,0,0,0-6.54-1.42,5,5,0,0,0-2.55,1.75,4.65,4.65,0,0,0,.25,5.4,6.87,6.87,0,0,0,5.06,2.45A12.91,12.91,0,0,0,104,77.76" transform="translate(-6.95 -26.6)"/><path class="cls-4" d="M100.37,77.25s.56.4,1.53,1A11.17,11.17,0,0,0,106,79.48a12.42,12.42,0,0,0,2.36,0,11.15,11.15,0,0,0,1.9-.35c1.06-.3,1.68-.62,1.7-.58a1.85,1.85,0,0,1-.4.24,3.48,3.48,0,0,1-.52.24,6,6,0,0,1-.71.26,10.5,10.5,0,0,1-1.93.4,10.65,10.65,0,0,1-4.74-.54,10,10,0,0,1-1.78-.84,6.73,6.73,0,0,1-.63-.4,3.87,3.87,0,0,1-.45-.35A1.85,1.85,0,0,1,100.37,77.25Z" transform="translate(-6.95 -26.6)"/><path class="cls-4" d="M112.31,82.58a2.15,2.15,0,0,1-.51.15c-.32.09-.79.19-1.4.3a13,13,0,0,1-4.73,0,7.45,7.45,0,0,1-4.09-2.33,5.35,5.35,0,0,1-.77-1.22,1.85,1.85,0,0,1-.17-.5,8.06,8.06,0,0,0,1.07,1.59,7.54,7.54,0,0,0,4,2.23,14,14,0,0,0,4.65,0l1.42-.22A2.25,2.25,0,0,1,112.31,82.58Z" transform="translate(-6.95 -26.6)"/><path class="cls-4" d="M95.86,110.84s0,0-.06-.06a1.56,1.56,0,0,1-.16-.2,2.88,2.88,0,0,1-.37-.93,4.25,4.25,0,0,1,1-3.43,8.36,8.36,0,0,1,1.93-1.63c.76-.5,1.6-1,2.44-1.52a7.44,7.44,0,0,0,2.23-2.17,4,4,0,0,0,.56-1.53,5,5,0,0,0-.1-1.68,21.34,21.34,0,0,0-1.16-3.19,8.61,8.61,0,0,1-.8-3.11A8.34,8.34,0,0,1,103,86.27a7.86,7.86,0,0,1,2.73-2.39l.52-.24.39-.14a1.91,1.91,0,0,1,.34-.1,1.83,1.83,0,0,1-.32.14l-.4.16-.5.27a7.89,7.89,0,0,0-2.63,2.41,8.22,8.22,0,0,0-1.5,5,8.69,8.69,0,0,0,.78,3,21,21,0,0,1,1.19,3.22,4.74,4.74,0,0,1,.09,1.76,4.06,4.06,0,0,1-.59,1.62,7.53,7.53,0,0,1-2.3,2.23c-.85.57-1.7,1-2.46,1.51a8.83,8.83,0,0,0-1.91,1.59,4.2,4.2,0,0,0-1,3.3A3,3,0,0,0,95.86,110.84Z" transform="translate(-6.95 -26.6)"/><path class="cls-4" d="M108.16,111a1.35,1.35,0,0,1-.26-.15,2.07,2.07,0,0,1-.6-.65,3.1,3.1,0,0,1-.42-1.33,5.14,5.14,0,0,1,.21-1.83c.37-1.36,1.5-2.59,2.36-4.14a5.18,5.18,0,0,0,.69-2.64,7.16,7.16,0,0,0-.74-2.84,52.17,52.17,0,0,0-3.16-4.88,10.1,10.1,0,0,1-1.09-2.33,5.75,5.75,0,0,1-.23-2.22,4.36,4.36,0,0,1,1.35-2.89,3.36,3.36,0,0,1,.74-.48,1.42,1.42,0,0,1,.29-.1,4.57,4.57,0,0,0-1,.65A4.42,4.42,0,0,0,105.09,88a5.6,5.6,0,0,0,.25,2.15,9.75,9.75,0,0,0,1.11,2.27c.47.75,1,1.51,1.59,2.3a16.35,16.35,0,0,1,1.59,2.59,7.25,7.25,0,0,1,.76,3,5.36,5.36,0,0,1-.73,2.74c-.89,1.59-2,2.79-2.39,4.08a4.91,4.91,0,0,0-.24,1.78,3.14,3.14,0,0,0,.37,1.3A2.66,2.66,0,0,0,108.16,111Z" transform="translate(-6.95 -26.6)"/><path class="cls-4" d="M126.39,76.34a.37.37,0,0,1-.17-.07,3.64,3.64,0,0,1-.46-.3,5.53,5.53,0,0,1-1.33-1.48,17,17,0,0,1-1.28-2.65,16.58,16.58,0,0,0-.72-1.56,9.7,9.7,0,0,0-1-1.53,10.4,10.4,0,0,0-5.34-3.43,14,14,0,0,0-2.65-.4,3.54,3.54,0,0,1,.73,0,9.41,9.41,0,0,1,2,.25,10,10,0,0,1,2.73,1.11,10.16,10.16,0,0,1,2.75,2.35,9,9,0,0,1,1,1.56,15.32,15.32,0,0,1,.72,1.6,17.51,17.51,0,0,0,1.22,2.64,6.16,6.16,0,0,0,1.24,1.5C126.17,76.2,126.4,76.32,126.39,76.34Z" transform="translate(-6.95 -26.6)"/><path class="cls-4" d="M132.83,76.3l-.25,0a4.39,4.39,0,0,1-.69-.18,6.07,6.07,0,0,1-2.2-1.43,13.43,13.43,0,0,1-2.29-3.16,23.29,23.29,0,0,0-2.51-4A7.78,7.78,0,0,0,121,65.08a15.27,15.27,0,0,0-3.81-.51c-1.1,0-2,0-2.61,0l-.71,0a1.13,1.13,0,0,1-.26,0,.73.73,0,0,1,.25,0c.16,0,.4,0,.71-.07.62-.06,1.51-.13,2.62-.13a14.81,14.81,0,0,1,3.87.47,8,8,0,0,1,4,2.5,23.3,23.3,0,0,1,2.53,4,13.49,13.49,0,0,0,2.21,3.14A6.22,6.22,0,0,0,131.92,76C132.5,76.23,132.84,76.28,132.83,76.3Z" transform="translate(-6.95 -26.6)"/><path class="cls-4" d="M143.74,106.28s.12-.33.27-.93a8.79,8.79,0,0,0,.28-2.6,8.66,8.66,0,0,0-1-3.73A8.43,8.43,0,0,0,142,97.15c-.53-.6-1.15-1.16-1.77-1.76a17.46,17.46,0,0,1-1.71-1.83,12,12,0,0,1-1.23-2,10.91,10.91,0,0,1-.74-2,11.13,11.13,0,0,1-.35-1.81,10.76,10.76,0,0,1,0-2.66c0-.24.07-.48.12-.71a1.82,1.82,0,0,1,.07-.25s0,.35-.1,1a11.57,11.57,0,0,0,.05,2.63,12,12,0,0,0,.37,1.78,11.12,11.12,0,0,0,.75,1.94,11.58,11.58,0,0,0,1.22,2,16,16,0,0,0,1.69,1.8c.62.59,1.23,1.16,1.78,1.77a9.07,9.07,0,0,1,1.34,1.92,8.81,8.81,0,0,1,1,3.83,8.09,8.09,0,0,1-.35,2.64,5,5,0,0,1-.26.68A.7.7,0,0,1,143.74,106.28Z" transform="translate(-6.95 -26.6)"/><path class="cls-4" d="M93.14,75.94a1.19,1.19,0,0,1,.06-.46,5,5,0,0,1,7.14-3.17,4.8,4.8,0,0,1,.48.3,4.62,4.62,0,0,1,.94.82,1.41,1.41,0,0,1,.25.4,8.68,8.68,0,0,0-1.28-1.06,4.9,4.9,0,0,0-6.79,1.42c0,.08-.1.16-.14.24A8.13,8.13,0,0,0,93.14,75.94Z" transform="translate(-6.95 -26.6)"/><path class="cls-4" d="M97.62,77.88a3.72,3.72,0,0,1,.12-1,4.57,4.57,0,0,1,1.1-2.31,2.42,2.42,0,0,1,2.45-.62,1.45,1.45,0,0,1,.65.44c.12.15.15.25.14.26a2,2,0,0,0-.85-.54,2.37,2.37,0,0,0-2.22.63,5,5,0,0,0-1.1,2.18A5.84,5.84,0,0,1,97.62,77.88Z" transform="translate(-6.95 -26.6)"/><path class="cls-5" d="M103.48,71.12a20.92,20.92,0,0,0-1.19,2.51c-.49,1.46-.55,2.73-.63,2.72a5.68,5.68,0,0,1,.4-2.79A6,6,0,0,1,103.48,71.12Z" transform="translate(-6.95 -26.6)"/><polygon class="cls-5" points="93.27 159.18 102.6 152.18 99.97 117.58 131.4 115.93 134.62 152.18 137.51 157.68 139.95 172.88 86.1 172.88 93.27 159.18"/><path class="cls-5" d="M131.23,114.93l4.2,29.44,3-.66L134.84,116S132.91,114.28,131.23,114.93Z" transform="translate(-6.95 -26.6)"/><path class="cls-5" d="M106.92,144.18,95.21,118.37s1.3-1.77,2.57-1.77,1,.94,1,.94l10.79,26.82Z" transform="translate(-6.95 -26.6)"/><path class="cls-3" d="M134.77,156.4v.37c0,.26,0,.62,0,1.1a25.26,25.26,0,0,1-.25,4,14.62,14.62,0,0,1-2,5.61,10.29,10.29,0,0,1-2.34,2.63,9.35,9.35,0,0,1-1.56,1,8.23,8.23,0,0,1-1.8.71,7.72,7.72,0,0,1-1.91.27,6.84,6.84,0,0,1-1.86-.25,7.94,7.94,0,0,1-3.1-1.68,12.1,12.1,0,0,1-3.33-4.87,27.09,27.09,0,0,1-1.16-3.85c-.1-.46-.17-.82-.22-1.06s0-.21,0-.28a.17.17,0,0,1,0-.1.29.29,0,0,1,0,.09l.08.28.26,1.06a30,30,0,0,0,1.22,3.8,12,12,0,0,0,3.34,4.78,7.83,7.83,0,0,0,3,1.63,6.92,6.92,0,0,0,1.81.24,7.32,7.32,0,0,0,1.86-.26,8.49,8.49,0,0,0,1.75-.69,9.88,9.88,0,0,0,1.53-1,10.29,10.29,0,0,0,2.31-2.57,14.86,14.86,0,0,0,2-5.53,28,28,0,0,0,.31-4v-1.37A.15.15,0,0,1,134.77,156.4Z" transform="translate(-6.95 -26.6)"/><path class="cls-3" d="M133.05,154.94l-.14.11a4.36,4.36,0,0,1-.46.27,12.41,12.41,0,0,1-1.76.85,16.07,16.07,0,0,1-6.32,1.16c-1.26,0-2.45-.16-3.53-.24a19.78,19.78,0,0,0-2.88,0,9.36,9.36,0,0,0-1.9.35c-.22.08-.45.15-.68.21a.51.51,0,0,1,.16-.09l.49-.2a8.41,8.41,0,0,1,1.92-.4,17.55,17.55,0,0,1,2.9,0c1.08.07,2.28.2,3.53.22a17,17,0,0,0,8-1.86A5.71,5.71,0,0,1,133.05,154.94Z" transform="translate(-6.95 -26.6)"/><g class="cls-6"><path d="M115.29,161.71a27.75,27.75,0,0,0,2.84,8.11c1.49,2.47,3.92,4.54,6.77,4.84a8.35,8.35,0,0,0,6.54-2.42,12.53,12.53,0,0,0,3.33-6.27c.53-2.34.16-4.6,0-7a26.28,26.28,0,0,1-.46,3.66,15.65,15.65,0,0,1-3.44,6.67,8,8,0,0,1-7,2.54,8.83,8.83,0,0,1-5.38-3.64,19.91,19.91,0,0,1-2.74-6" transform="translate(-6.95 -26.6)"/></g><g class="cls-6"><path class="cls-7" d="M122.44,153a8.43,8.43,0,0,1-2.22-.8,2.72,2.72,0,0,1-1-.8,1.22,1.22,0,0,1-.16-1.22,1.13,1.13,0,0,1,1.24-.53,1.67,1.67,0,0,1,1.07.92c-.22-.61.26-1.43.9-1.37a1.07,1.07,0,0,1,.88,1,2.78,2.78,0,0,1-.31,1.39,4.47,4.47,0,0,0-.45,1.38" transform="translate(-6.95 -26.6)"/></g><g class="cls-6"><path class="cls-7" d="M130.13,183.51a7.78,7.78,0,0,1-2.22-.8,2.78,2.78,0,0,1-1-.79,1.22,1.22,0,0,1-.16-1.22,1.13,1.13,0,0,1,1.24-.53,1.65,1.65,0,0,1,1.07.91,1,1,0,0,1,.9-1.36,1.07,1.07,0,0,1,.88,1,2.8,2.8,0,0,1-.31,1.39,4.3,4.3,0,0,0-.45,1.35" transform="translate(-6.95 -26.6)"/></g><g class="cls-6"><path class="cls-7" d="M136.44,197.21a8.09,8.09,0,0,1-2.22-.8,2.78,2.78,0,0,1-1-.79,1.24,1.24,0,0,1-.16-1.23,1.14,1.14,0,0,1,1.25-.52,1.66,1.66,0,0,1,1.06.91,1,1,0,0,1,.9-1.37,1.08,1.08,0,0,1,.88,1,2.77,2.77,0,0,1-.31,1.38,4.63,4.63,0,0,0-.45,1.36" transform="translate(-6.95 -26.6)"/></g><g class="cls-6"><path class="cls-7" d="M126.64,165.58a8.09,8.09,0,0,1-2.22-.8,2.7,2.7,0,0,1-1-.8,1.22,1.22,0,0,1-.16-1.22,1.14,1.14,0,0,1,1.25-.52,1.66,1.66,0,0,1,1.06.91,1,1,0,0,1,.9-1.36,1.07,1.07,0,0,1,.88,1,2.74,2.74,0,0,1-.31,1.38,4.73,4.73,0,0,0-.45,1.36" transform="translate(-6.95 -26.6)"/></g><g class="cls-6"><path class="cls-7" d="M135.9,175.36a8.14,8.14,0,0,1-1.87-1.43,2.78,2.78,0,0,1-.72-1.07,1.17,1.17,0,0,1,.23-1.19,1.11,1.11,0,0,1,1.34-.12,1.64,1.64,0,0,1,.73,1.2c0-.65.69-1.28,1.28-1a1.1,1.1,0,0,1,.53,1.22,2.81,2.81,0,0,1-.72,1.22,4.51,4.51,0,0,0-.85,1.15" transform="translate(-6.95 -26.6)"/></g><g class="cls-6"><path class="cls-7" d="M111.31,197.13a8.43,8.43,0,0,1-1.87-1.43,3,3,0,0,1-.72-1.07,1.24,1.24,0,0,1,.23-1.2,1.13,1.13,0,0,1,1.34-.11,1.68,1.68,0,0,1,.74,1.19c0-.65.68-1.28,1.28-1a1.08,1.08,0,0,1,.51,1.21,2.74,2.74,0,0,1-.73,1.22,4.37,4.37,0,0,0-.84,1.15" transform="translate(-6.95 -26.6)"/></g><g class="cls-6"><path class="cls-7" d="M131.49,151.26a4.7,4.7,0,0,1-1.19-.53,1.5,1.5,0,0,1-.52-.48.69.69,0,0,1,0-.68.6.6,0,0,1,.7-.23.88.88,0,0,1,.55.55.56.56,0,0,1,.56-.71.58.58,0,0,1,.43.58,1.53,1.53,0,0,1-.23.75,2.7,2.7,0,0,0-.31.72" transform="translate(-6.95 -26.6)"/></g><g class="cls-6"><path class="cls-7" d="M137.58,163.41a2.94,2.94,0,0,1-.86-.4,1.07,1.07,0,0,1-.38-.35.5.5,0,0,1,0-.5.48.48,0,0,1,.52-.17.71.71,0,0,1,.4.4c-.07-.25.14-.56.39-.52a.42.42,0,0,1,.32.43,1.11,1.11,0,0,1-.17.55,1.7,1.7,0,0,0-.22.52" transform="translate(-6.95 -26.6)"/></g><g class="cls-6"><path class="cls-7" d="M136.72,146.22a3.06,3.06,0,0,1-.86-.4,1.06,1.06,0,0,1-.38-.35.46.46,0,0,1,0-.49.43.43,0,0,1,.51-.17.67.67,0,0,1,.4.39c-.07-.25.15-.56.4-.51a.43.43,0,0,1,.32.42,1.15,1.15,0,0,1-.17.55,1.67,1.67,0,0,0-.23.53" transform="translate(-6.95 -26.6)"/></g><g class="cls-6"><path class="cls-7" d="M110.39,184.92a3.44,3.44,0,0,1-.87-.4,1.27,1.27,0,0,1-.38-.35.52.52,0,0,1,0-.5.47.47,0,0,1,.52-.17.7.7,0,0,1,.39.4c-.06-.25.15-.56.4-.52a.45.45,0,0,1,.33.43,1.05,1.05,0,0,1-.18.54,1.86,1.86,0,0,0-.22.53" transform="translate(-6.95 -26.6)"/></g><g class="cls-6"><path class="cls-7" d="M139.27,185.36a3.44,3.44,0,0,1-.87-.4,1.13,1.13,0,0,1-.37-.35.47.47,0,0,1,0-.5.46.46,0,0,1,.51-.17.71.71,0,0,1,.4.4c-.07-.25.15-.56.4-.52a.45.45,0,0,1,.32.43,1.05,1.05,0,0,1-.18.54,2.2,2.2,0,0,0-.22.53" transform="translate(-6.95 -26.6)"/></g><g class="cls-6"><path class="cls-7" d="M110.51,148.48a3.82,3.82,0,0,1-.87-.4,1.06,1.06,0,0,1-.37-.36.48.48,0,0,1,0-.49.46.46,0,0,1,.52-.17.64.64,0,0,1,.39.4c-.06-.26.15-.57.4-.52a.42.42,0,0,1,.32.43,1.14,1.14,0,0,1-.17.54,1.65,1.65,0,0,0-.22.53" transform="translate(-6.95 -26.6)"/></g><g class="cls-6"><path class="cls-7" d="M120.32,177.51a4.09,4.09,0,0,1-1.19-.53,1.41,1.41,0,0,1-.52-.48.67.67,0,0,1,0-.67.62.62,0,0,1,.7-.24.93.93,0,0,1,.55.55c-.09-.34.2-.77.56-.71a.58.58,0,0,1,.43.59,1.57,1.57,0,0,1-.23.75,2.31,2.31,0,0,0-.31.72" transform="translate(-6.95 -26.6)"/></g><g class="cls-6"><path class="cls-7" d="M124.7,194a4.09,4.09,0,0,1-1.19-.53,1.5,1.5,0,0,1-.52-.48.69.69,0,0,1,0-.68.62.62,0,0,1,.7-.23.91.91,0,0,1,.55.55.56.56,0,0,1,.56-.71.61.61,0,0,1,.44.59,1.62,1.62,0,0,1-.24.74,2.77,2.77,0,0,0-.31.73" transform="translate(-6.95 -26.6)"/></g><g class="cls-6"><path class="cls-7" d="M112.37,164.59a4.27,4.27,0,0,1-1.2-.53,1.46,1.46,0,0,1-.51-.48.65.65,0,0,1,0-.67.62.62,0,0,1,.71-.24,1,1,0,0,1,.55.55c-.1-.34.2-.77.55-.71a.6.6,0,0,1,.44.59,1.57,1.57,0,0,1-.23.75,2.1,2.1,0,0,0-.31.72" transform="translate(-6.95 -26.6)"/></g><path class="cls-3" d="M141.57,178.79a1.73,1.73,0,0,1-.28.19c-.18.11-.45.3-.82.49a17.66,17.66,0,0,1-3.26,1.39,31.6,31.6,0,0,1-11.55,1.2c-2.28-.18-4.43-.4-6.37-.69a44.55,44.55,0,0,1-5.14-1c-1.45-.4-2.6-.77-3.38-1.06-.4-.14-.69-.27-.89-.35a1.69,1.69,0,0,1-.31-.13,1.68,1.68,0,0,1,.32.09c.21.07.51.19.91.32.8.26,1.94.62,3.38,1a49.91,49.91,0,0,0,5.13,1c2,.28,4.11.5,6.38.67a32.66,32.66,0,0,0,11.5-1.13,19.52,19.52,0,0,0,3.26-1.32c.37-.18.64-.36.84-.46A1.51,1.51,0,0,1,141.57,178.79Z" transform="translate(-6.95 -26.6)"/><path class="cls-1" d="M92.21,170.6A20.4,20.4,0,0,0,93.88,172l2.79-1,3.46,1.78s3.11.32,3.14,1.44,1.84,6.64-.52,10.41a19.57,19.57,0,0,1-4,5l-8.09-8.57-2.39-1.86Z" transform="translate(-6.95 -26.6)"/></g><g id="freepik--Cake--inject-2"><circle class="cls-5" cx="174.45" cy="97.78" r="1.49"/><path class="cls-3" d="M177.59,121a1.55,1.55,0,0,1,.71,0,3.37,3.37,0,0,1,2.64,2,1.64,1.64,0,0,1,.18.69,5.25,5.25,0,0,1-.31-.63,3.7,3.7,0,0,0-2.53-1.92A5.5,5.5,0,0,1,177.59,121Z" transform="translate(-6.95 -26.6)"/><path class="cls-3" d="M180.7,123.66s.19,0,.35-.12.24-.23.3-.23,0,.06,0,.15a.51.51,0,0,1-.22.26.49.49,0,0,1-.34,0C180.73,123.74,180.69,123.69,180.7,123.66Z" transform="translate(-6.95 -26.6)"/><path class="cls-7" d="M182.45,125a2.55,2.55,0,0,0,0-1.1c-.21-.58-.72-.8-.69-.87s.15,0,.34.12a1.34,1.34,0,0,1,.55,1.55C182.57,124.94,182.47,125.06,182.45,125Z" transform="translate(-6.95 -26.6)"/><path class="cls-5" d="M194.46,123.89a2.11,2.11,0,1,1-2.1-2.1h0A2.1,2.1,0,0,1,194.46,123.89Z" transform="translate(-6.95 -26.6)"/><path class="cls-4" d="M197.72,119.12s-.4,0-1,.14a5.16,5.16,0,0,0-3.59,2.73c-.27.53-.36.9-.4.89a2.6,2.6,0,0,1,.27-.95,4.82,4.82,0,0,1,3.7-2.81A2.36,2.36,0,0,1,197.72,119.12Z" transform="translate(-6.95 -26.6)"/><path class="cls-3" d="M193.34,122.87s0,.08-.16.11a.69.69,0,0,1-.76-.4c0-.12,0-.19,0-.2a1.48,1.48,0,0,0,.4.36C193.07,122.87,193.32,122.82,193.34,122.87Z" transform="translate(-6.95 -26.6)"/><path class="cls-7" d="M190.88,124.8a.84.84,0,0,1-.24-.44,1.93,1.93,0,0,1,.76-2.14.86.86,0,0,1,.46-.19,3,3,0,0,1-.37.3,2.1,2.1,0,0,0-.71,2A4.42,4.42,0,0,1,190.88,124.8Z" transform="translate(-6.95 -26.6)"/><path class="cls-5" d="M177.25,125.78h19.9v18.76h-21.1V127a1.19,1.19,0,0,1,1.2-1.19Z" transform="translate(-6.95 -26.6)"/><g class="cls-8"><path d="M176.82,126.91c6.48.08,12.79-.33,19.27-.25l1,.71,0,3.09s-.44.18-.57-.16a2.66,2.66,0,0,1,0-1.19c-.38-.26-.6.08-.8.5a3.2,3.2,0,0,0-.14,1.34,1.61,1.61,0,0,1-.45,1.25,1.2,1.2,0,0,1-1.41,0,3.57,3.57,0,0,1-.95-1.16,5.19,5.19,0,0,0-1.32-1.66,1.79,1.79,0,0,0-2-.16c-.63.44-.86,1.42-1.59,1.6s-1.6-.9-2.47-.84-1.18.85-1.5,1.53-.88,1.44-1.62,1.31c-1-.17-1.23-1.76-2.21-1.86-.76-.07-1.26.8-2,1.08a1.72,1.72,0,0,1-2-.72,2.86,2.86,0,0,1-.28-2.25,8.09,8.09,0,0,1,1-2.11" transform="translate(-6.95 -26.6)"/></g><path class="cls-5" d="M197.21,125.7a2.66,2.66,0,0,0-1.19-.19c-6.3-.08-12.44.29-18.72.26a2,2,0,0,0-1.85,1.18,5,5,0,0,0-.37,1,3,3,0,0,0,.29,2.32,1.82,1.82,0,0,0,2.1.75c.72-.3,1.24-1.2,2-1.11,1,.1,1.28,1.74,2.29,1.91s1.5-.89,1.8-1.63a2.3,2.3,0,0,1,.63-.94c1.32-1.14,2.2.76,3.35.51.77-.18,1-1.2,1.66-1.64a1.84,1.84,0,0,1,2.07.16,5.81,5.81,0,0,1,1.37,1.71,3.46,3.46,0,0,0,1,1.2,1.25,1.25,0,0,0,1.46.05,1.65,1.65,0,0,0,.45-1.29,3.43,3.43,0,0,1,.15-1.39c.2-.43.76-.74,1.15-.48a2.05,2.05,0,0,0,0,1.1.74.74,0,0,0,.87.5c.37-.15.45-.62.48-1C198.28,127.56,198.22,126.18,197.21,125.7Z" transform="translate(-6.95 -26.6)"/><path class="cls-5" d="M164.32,144.58a1.92,1.92,0,0,1,.09-2.61,9.88,9.88,0,0,1,1.36-.83,1.37,1.37,0,0,0,.74-1.3c-.07-.37-.4-.69-.32-1.06a.72.72,0,0,1,.87-.48,1.72,1.72,0,0,1,.88.62,6.33,6.33,0,0,1,1.5,3.4,3.2,3.2,0,0,1-.53,2.15,15.24,15.24,0,0,1-1.91.06" transform="translate(-6.95 -26.6)"/><path class="cls-5" d="M171.73,144.58a1.92,1.92,0,0,1,.09-2.61,9,9,0,0,1,1.36-.83,1.39,1.39,0,0,0,.74-1.3c-.07-.37-.4-.69-.32-1.06a.71.71,0,0,1,.87-.48,1.72,1.72,0,0,1,.88.62,6.49,6.49,0,0,1,1.5,3.4,3.2,3.2,0,0,1-.53,2.15,15.24,15.24,0,0,1-1.91.06" transform="translate(-6.95 -26.6)"/><path class="cls-5" d="M179.14,144.58a1.92,1.92,0,0,1,.09-2.61,9,9,0,0,1,1.36-.83,1.41,1.41,0,0,0,.74-1.3c-.07-.37-.4-.69-.32-1.06a.7.7,0,0,1,.86-.48,1.71,1.71,0,0,1,.89.62,6.49,6.49,0,0,1,1.5,3.4,3.16,3.16,0,0,1-.54,2.15,15,15,0,0,1-1.9.06" transform="translate(-6.95 -26.6)"/><path class="cls-5" d="M186.55,144.58a1.91,1.91,0,0,1,.08-2.61,9.08,9.08,0,0,1,1.37-.83,1.41,1.41,0,0,0,.74-1.3c-.08-.37-.4-.69-.33-1.06a.72.72,0,0,1,.87-.48,1.71,1.71,0,0,1,.89.62,6.39,6.39,0,0,1,1.49,3.4,3.15,3.15,0,0,1-.53,2.15,15,15,0,0,1-1.9.06" transform="translate(-6.95 -26.6)"/><path class="cls-5" d="M194,144.58A1.9,1.9,0,0,1,194,142a9.51,9.51,0,0,1,1.36-.83,1.37,1.37,0,0,0,.74-1.3c-.07-.37-.4-.69-.32-1.06a.72.72,0,0,1,.87-.48,1.75,1.75,0,0,1,.89.62,6.39,6.39,0,0,1,1.49,3.4,3.2,3.2,0,0,1-.53,2.15,15.08,15.08,0,0,1-1.9.06" transform="translate(-6.95 -26.6)"/><path class="cls-5" d="M201.36,144.58a1.92,1.92,0,0,1,.09-2.61,9,9,0,0,1,1.36-.83,1.37,1.37,0,0,0,.74-1.3c-.07-.37-.4-.69-.32-1.06a.72.72,0,0,1,.87-.48,1.72,1.72,0,0,1,.88.62,6.33,6.33,0,0,1,1.5,3.4,3.16,3.16,0,0,1-.54,2.15,14.92,14.92,0,0,1-1.89.06" transform="translate(-6.95 -26.6)"/><g class="cls-9"><path class="cls-7" d="M164.32,144.58a1.92,1.92,0,0,1,.09-2.61,9.88,9.88,0,0,1,1.36-.83,1.37,1.37,0,0,0,.74-1.3c-.07-.37-.4-.69-.32-1.06a.72.72,0,0,1,.87-.48,1.72,1.72,0,0,1,.88.62,6.33,6.33,0,0,1,1.5,3.4,3.2,3.2,0,0,1-.53,2.15,15.24,15.24,0,0,1-1.91.06" transform="translate(-6.95 -26.6)"/><path class="cls-7" d="M171.73,144.58a1.92,1.92,0,0,1,.09-2.61,9,9,0,0,1,1.36-.83,1.39,1.39,0,0,0,.74-1.3c-.07-.37-.4-.69-.32-1.06a.71.71,0,0,1,.87-.48,1.72,1.72,0,0,1,.88.62,6.49,6.49,0,0,1,1.5,3.4,3.2,3.2,0,0,1-.53,2.15,15.24,15.24,0,0,1-1.91.06" transform="translate(-6.95 -26.6)"/><path class="cls-7" d="M179.14,144.58a1.92,1.92,0,0,1,.09-2.61,9,9,0,0,1,1.36-.83,1.41,1.41,0,0,0,.74-1.3c-.07-.37-.4-.69-.32-1.06a.7.7,0,0,1,.86-.48,1.71,1.71,0,0,1,.89.62,6.49,6.49,0,0,1,1.5,3.4,3.16,3.16,0,0,1-.54,2.15,15,15,0,0,1-1.9.06" transform="translate(-6.95 -26.6)"/><path class="cls-7" d="M186.55,144.58a1.91,1.91,0,0,1,.08-2.61,9.08,9.08,0,0,1,1.37-.83,1.41,1.41,0,0,0,.74-1.3c-.08-.37-.4-.69-.33-1.06a.72.72,0,0,1,.87-.48,1.71,1.71,0,0,1,.89.62,6.39,6.39,0,0,1,1.49,3.4,3.15,3.15,0,0,1-.53,2.15,15,15,0,0,1-1.9.06" transform="translate(-6.95 -26.6)"/><path class="cls-7" d="M194,144.58A1.9,1.9,0,0,1,194,142a9.51,9.51,0,0,1,1.36-.83,1.37,1.37,0,0,0,.74-1.3c-.07-.37-.4-.69-.32-1.06a.72.72,0,0,1,.87-.48,1.75,1.75,0,0,1,.89.62,6.39,6.39,0,0,1,1.49,3.4,3.2,3.2,0,0,1-.53,2.15,15.08,15.08,0,0,1-1.9.06" transform="translate(-6.95 -26.6)"/><path class="cls-7" d="M201.36,144.58a1.92,1.92,0,0,1,.09-2.61,9,9,0,0,1,1.36-.83,1.37,1.37,0,0,0,.74-1.3c-.07-.37-.4-.69-.32-1.06a.72.72,0,0,1,.87-.48,1.72,1.72,0,0,1,.88.62,6.33,6.33,0,0,1,1.5,3.4,3.16,3.16,0,0,1-.54,2.15,14.92,14.92,0,0,1-1.89.06" transform="translate(-6.95 -26.6)"/></g><rect class="cls-5" x="154.25" y="117.94" width="50.15" height="22.14"/><rect class="cls-3" x="141.16" y="168.53" width="76.18" height="4.08"/><g class="cls-8"><path d="M159.83,193.78c0,.05-.27,0-.57-.06s-.52-.21-.5-.26.26,0,.56.06S159.83,193.72,159.83,193.78Z" transform="translate(-6.95 -26.6)"/></g><g class="cls-8"><path d="M166.27,193.58s-.06.18-.21.3-.29.18-.33.13.06-.18.2-.29S166.23,193.53,166.27,193.58Z" transform="translate(-6.95 -26.6)"/></g><g class="cls-8"><path d="M174,193.76c-.05,0-.19-.08-.31-.25s-.18-.35-.13-.38.19.08.31.26S174,193.73,174,193.76Z" transform="translate(-6.95 -26.6)"/></g><g class="cls-8"><path d="M182.32,192.48c.05,0,0,.25-.18.48s-.31.4-.36.38,0-.25.18-.49S182.27,192.45,182.32,192.48Z" transform="translate(-6.95 -26.6)"/></g><g class="cls-8"><path d="M187.59,194.21s-.19-.05-.34-.2-.23-.3-.19-.34.19.05.33.2S187.63,194.17,187.59,194.21Z" transform="translate(-6.95 -26.6)"/></g><g class="cls-8"><path d="M195.1,194c0,.06-.15.1-.33.1s-.32,0-.32-.1.14-.1.32-.1S195.1,193.94,195.1,194Z" transform="translate(-6.95 -26.6)"/></g><g class="cls-8"><path d="M202.6,192.81c0,.05-.12.19-.33.31s-.39.17-.42.12.11-.18.32-.3S202.57,192.78,202.6,192.81Z" transform="translate(-6.95 -26.6)"/></g><g class="cls-8"><path d="M211.92,193.89a.18.18,0,0,1-.12.15.16.16,0,0,1-.2,0c0-.05,0-.12.13-.15S211.9,193.83,211.92,193.89Z" transform="translate(-6.95 -26.6)"/></g><g class="cls-8"><path d="M214.81,192.7a.12.12,0,0,1-.06.14.11.11,0,0,1-.16,0,.12.12,0,0,1,.06-.14A.11.11,0,0,1,214.81,192.7Z" transform="translate(-6.95 -26.6)"/></g><path class="cls-5" d="M157.61,166.15h59a1.07,1.07,0,0,1,1.07,1.08h0v26.83a1.07,1.07,0,0,1-1.07,1.07H155.77a1.07,1.07,0,0,1-1.07-1.07h0v-25a2.9,2.9,0,0,1,2.9-2.91Z" transform="translate(-6.95 -26.6)"/><g class="cls-8"><path d="M217.06,190.42c-13.55-.54-27.15-1.07-40.69-.16-6.15.4-12.39,1.13-18.45-.07a5,5,0,0,0-2.11-.13,1.69,1.69,0,0,0-.68.31.78.78,0,0,0-.17,1.08.81.81,0,0,0,.46.29c10.47,2.16,21.23-.68,32-.19,3.59.16,7.17.69,10.78.54,2.47-.11,4.91-.53,7.38-.68,3.84-.21,7.7.26,11.53-.12.31,0,.71-.18.68-.49S217.34,190.43,217.06,190.42Z" transform="translate(-6.95 -26.6)"/></g><g class="cls-8"><path d="M154.62,175.74a3.33,3.33,0,0,0,5.18-3.27,2.51,2.51,0,0,0,4.59-1.78,2.39,2.39,0,0,0,3.32-.09c.33-.36.56-.84,1-1.06a1.52,1.52,0,0,1,1.9.86,5.76,5.76,0,0,1,.37,2.27,3.13,3.13,0,0,0,.73,2.14,1.26,1.26,0,0,0,2-.18c.19-.39.14-1,.56-1.16s.64.19.77.5a8.41,8.41,0,0,0,.31,1,1.48,1.48,0,0,0,1.88.42,4.22,4.22,0,0,0,1.49-1.45,6.71,6.71,0,0,0,.1,2.75,2.26,2.26,0,0,0,2,1.66c1.19,0,2-1.25,2.21-2.4a14.45,14.45,0,0,1,.69-3.46c.32-.65,1-1.25,1.72-1s.91,1.31,1.59,1.7c.83.46,1.82-.27,2.39-1s1.09-1.72,2-1.88a2.42,2.42,0,0,1,2.31,1.59c.42.92.53,2,1,2.86a2.22,2.22,0,0,0,2.42,1.36c.8-.25,1.2-1.09,1.68-1.77s1.41-1.26,2.1-.79.64,1.59,1.39,1.81c.94.26,1.42-1.22,2.35-1.49,1.3-.37,2,1.7,3.3,2,1.07.28,2.06-.71,2.47-1.74a12.34,12.34,0,0,1,1.2-3.06c.66-.88,2.22-1.22,2.79-.27a12.43,12.43,0,0,1,.4,1.22c.45,1,2.49,1.07,2.92.07v-4.3h-63Z" transform="translate(-6.95 -26.6)"/></g><path class="cls-5" d="M217.09,189.6c-13.7-.54-27.42-1.08-41.1-.16-6.22.4-12.53,1.13-18.65-.07a5.11,5.11,0,0,0-2.13-.14,2,2,0,0,0-.69.32.77.77,0,0,0-.16,1.07.72.72,0,0,0,.46.3c10.58,2.16,21.45-.69,32.27-.2,3.63.17,7.26.7,10.89.54,2.49-.1,5-.53,7.45-.67,3.88-.22,7.79.25,11.65-.13.32,0,.72-.17.69-.48S217.38,189.6,217.09,189.6Z" transform="translate(-6.95 -26.6)"/><g class="cls-8"><path d="M155.45,183.74l17.59.47a110,110,0,0,0,16.74-.4c5.24-.66,10.46-2.09,15.71-1.59,2.37.22,4.7.83,7.07,1,2,.17,3.14.56,5.13-.35V181.8c-5.21,0-9.56-.58-14.69-.59-5.46,0-10.86.62-16.33.61h-30a3.64,3.64,0,0,0-1.7.29.91.91,0,0,0-.12,1.3.93.93,0,0,0,.64.33" transform="translate(-6.95 -26.6)"/></g><g class="cls-8"><path d="M160.86,187.12s-.23,0-.44-.2-.36-.31-.33-.36.23,0,.44.2S160.89,187.08,160.86,187.12Z" transform="translate(-6.95 -26.6)"/></g><g class="cls-8"><path d="M166.38,185.78s0-.15.06-.25.17-.15.22-.12,0,.15-.06.25S166.42,185.81,166.38,185.78Z" transform="translate(-6.95 -26.6)"/></g><g class="cls-8"><path d="M173.43,187.56c-.05,0-.17,0-.32-.13s-.26-.18-.25-.23.19-.06.36.06S173.47,187.53,173.43,187.56Z" transform="translate(-6.95 -26.6)"/></g><g class="cls-8"><path d="M177.11,185.18s-.06.18-.22.3-.32.18-.35.13.07-.18.23-.3S177.08,185.14,177.11,185.18Z" transform="translate(-6.95 -26.6)"/></g><g class="cls-8"><path d="M184.23,186.88s-.15-.06-.22-.2-.08-.26,0-.29.15.06.22.2S184.28,186.85,184.23,186.88Z" transform="translate(-6.95 -26.6)"/></g><g class="cls-8"><path d="M194.72,184.82s-.05.16-.19.25-.27.12-.3.07.05-.16.19-.25S194.68,184.76,194.72,184.82Z" transform="translate(-6.95 -26.6)"/></g><g class="cls-8"><path d="M202.7,187s-.19-.19-.42-.4-.45-.31-.43-.37.3,0,.57.21S202.76,187,202.7,187Z" transform="translate(-6.95 -26.6)"/></g><g class="cls-8"><path d="M210,183.37s-.11.29-.35.55-.46.45-.51.4.12-.28.36-.55S209.94,183.33,210,183.37Z" transform="translate(-6.95 -26.6)"/></g><g class="cls-8"><path d="M214,186.69c-.06,0-.19-.12-.4-.2s-.43,0-.45-.09.2-.21.51-.1S214,186.68,214,186.69Z" transform="translate(-6.95 -26.6)"/></g><g class="cls-8"><path d="M208.83,192.06c0,.06-.17.11-.38.11s-.37,0-.37-.11.17-.1.37-.1S208.83,192,208.83,192.06Z" transform="translate(-6.95 -26.6)"/></g><path class="cls-5" d="M154.45,182.82l17.59.47a110,110,0,0,0,16.74-.39c5.24-.67,10.46-2.1,15.72-1.6,2.36.22,4.69.83,7.06,1a14.7,14.7,0,0,0,6.81-.92.27.27,0,0,0,.14-.36.28.28,0,0,0-.24-.15l-16.2,0H155.63a3.55,3.55,0,0,0-1.7.28.94.94,0,0,0-.18,1.3.91.91,0,0,0,.69.36" transform="translate(-6.95 -26.6)"/><g class="cls-8"><path d="M191.43,178.27s.13-.35.38-.69.5-.6.54-.57-.12.34-.37.69S191.48,178.3,191.43,178.27Z" transform="translate(-6.95 -26.6)"/></g><g class="cls-8"><path d="M198.87,178.44c-.05,0-.19-.16-.3-.42s-.17-.47-.12-.5.19.17.31.42S198.92,178.41,198.87,178.44Z" transform="translate(-6.95 -26.6)"/></g><g class="cls-8"><path d="M204.72,177.25c0,.05-.12.2-.32.34s-.4.21-.44.16.12-.2.32-.34S204.68,177.22,204.72,177.25Z" transform="translate(-6.95 -26.6)"/></g><g class="cls-8"><path d="M213.75,177.84c-.05,0-.25-.12-.46-.35S213,177,213,177s.24.12.45.35S213.79,177.8,213.75,177.84Z" transform="translate(-6.95 -26.6)"/></g><g class="cls-8"><path d="M173.06,179.35s.06-.2.22-.36.33-.26.37-.22-.06.2-.22.36S173.1,179.39,173.06,179.35Z" transform="translate(-6.95 -26.6)"/></g><g class="cls-8"><path d="M167.8,177.62c0-.05.11-.21.31-.34s.4-.22.43-.17-.11.2-.31.34S167.85,177.65,167.8,177.62Z" transform="translate(-6.95 -26.6)"/></g><g class="cls-8"><path d="M159,178.94s-.23,0-.36-.24-.11-.43-.06-.43.13.15.24.32S159.06,178.88,159,178.94Z" transform="translate(-6.95 -26.6)"/></g><g class="cls-8"><path d="M164.29,174.51c.05,0,0,.2-.17.36s-.29.26-.33.22,0-.2.17-.36S164.25,174.46,164.29,174.51Z" transform="translate(-6.95 -26.6)"/></g><path class="cls-5" d="M154.62,174.13a3.33,3.33,0,0,0,5.18-3.27,2.5,2.5,0,0,0,4.59-1.78,2.38,2.38,0,0,0,3.32-.1c.45-.49.72-1.19,1.57-1.17a1.47,1.47,0,0,1,1.05.53,4.41,4.41,0,0,1,.65,2.72,3.13,3.13,0,0,0,.73,2.14,1.26,1.26,0,0,0,2-.18c.19-.39.14-1,.56-1.15s.64.18.77.49a8.41,8.41,0,0,0,.31,1,1.48,1.48,0,0,0,1.88.42,4.22,4.22,0,0,0,1.49-1.45,5.58,5.58,0,0,0,.32,3.26,2.12,2.12,0,0,0,1.45,1.12c1.36.23,2.29-1.12,2.54-2.39s.15-2.79,1-3.93a1.33,1.33,0,0,1,1.14-.6c1,.06,1.14,1.32,1.9,1.75s1.82-.26,2.39-1,1.24-2,2.39-1.9a2,2,0,0,1,1.4.75c1.11,1.32.86,3.18,2,4.48a1.91,1.91,0,0,0,1.4.68c1.13,0,1.59-1,2.17-1.85s1.42-1.26,2.1-.79.65,1.59,1.4,1.81c.93.26,1.41-1.22,2.34-1.49,1.3-.37,2,1.7,3.31,2,1.07.28,2.06-.72,2.47-1.74.48-1.19.56-2.57,1.57-3.48a1.74,1.74,0,0,1,1.77-.36c.9.34.75,1.12,1,1.72.46,1,2.5,1.08,2.92.08l.27-3.49a1,1,0,0,0-.89-1H217l-60.84-.16a1.73,1.73,0,0,0-1.75,1.72v.08Z" transform="translate(-6.95 -26.6)"/><g class="cls-10"><path class="cls-7" d="M154.45,182.82l17.59.47a110,110,0,0,0,16.74-.39c5.24-.67,10.46-2.1,15.72-1.6,2.36.22,4.69.83,7.06,1a14.7,14.7,0,0,0,6.81-.92.27.27,0,0,0,.14-.36.28.28,0,0,0-.24-.15l-16.2,0H155.63a3.55,3.55,0,0,0-1.7.28.94.94,0,0,0-.18,1.3.91.91,0,0,0,.69.36" transform="translate(-6.95 -26.6)"/></g><g class="cls-10"><path class="cls-7" d="M217.09,189.6c-13.7-.54-27.42-1.08-41.1-.16-6.22.4-12.53,1.13-18.65-.07a5.11,5.11,0,0,0-2.13-.14,2,2,0,0,0-.69.32.77.77,0,0,0-.16,1.07.72.72,0,0,0,.46.3c10.58,2.16,21.45-.69,32.27-.2,3.63.17,7.26.7,10.89.54,2.49-.1,5-.53,7.45-.67,3.88-.22,7.79.25,11.65-.13.32,0,.72-.17.69-.48S217.38,189.6,217.09,189.6Z" transform="translate(-6.95 -26.6)"/></g><g class="cls-8"><path d="M210.78,156.07c-10.83-.43-21.69-.85-32.5-.12-4.92.33-9.91.9-14.74-.06a3.87,3.87,0,0,0-1.69-.11,1.48,1.48,0,0,0-.54.25.62.62,0,0,0-.12.87.6.6,0,0,0,.35.23c8.37,1.72,17-.55,25.52-.16,2.88.13,5.74.56,8.62.43,2-.08,3.92-.42,5.89-.53,3.07-.18,6.15.19,9.21-.1.25,0,.57-.15.55-.4S211,156.08,210.78,156.07Z" transform="translate(-6.95 -26.6)"/></g><path class="cls-5" d="M210.82,155.41c-10.94-.43-21.91-.86-32.84-.13-5,.33-10,.9-14.89-.05a4,4,0,0,0-1.71-.11,1.7,1.7,0,0,0-.55.25.63.63,0,0,0-.12.87.66.66,0,0,0,.36.23c8.45,1.72,17.13-.55,25.79-.16,2.9.13,5.8.56,8.7.43,2-.09,4-.42,5.95-.54,3.1-.17,6.22.2,9.31-.1.25,0,.58-.14.55-.4S211,155.42,210.82,155.41Z" transform="translate(-6.95 -26.6)"/><g class="cls-8"><path d="M161.2,144.54a7.42,7.42,0,0,0,4.05,6.25,8.05,8.05,0,0,0,6.35.06c1.72-.73,3.42-2.1,5.22-1.62a7.6,7.6,0,0,1,2.49,1.59,3.07,3.07,0,0,0,2.74.77c1.46-.5,1.9-2.7,3.42-3s2.92,1.83,4.47,1.39c1.09-.32,1.54-1.77,2.63-2.11s2.14.55,3.25.46c.9-.08,1.66-.8,2.56-.83a3,3,0,0,1,2.31,1.41,18.53,18.53,0,0,0,1.59,2.31,2.21,2.21,0,0,0,2.55.6c.82-.47,1-1.43,1.24-2.27s.86-1.8,1.75-1.74,1.56,1.25,2.51,1.2a1.41,1.41,0,0,0,1.15-1.24,4,4,0,0,0-.28-1.79Z" transform="translate(-6.95 -26.6)"/></g><path class="cls-5" d="M161.2,144.44a8.2,8.2,0,0,0,4.05,5,8.05,8.05,0,0,0,6.35.06c1.72-.73,3.42-2.09,5.22-1.62a7.8,7.8,0,0,1,2.49,1.6,3.07,3.07,0,0,0,2.74.77c1.46-.51,1.9-2.71,3.42-3s2.92,1.83,4.47,1.38c1.09-.31,1.54-1.76,2.63-2.1s2.14.55,3.25.45c.9-.07,1.66-.8,2.56-.83a3,3,0,0,1,2.31,1.41,17.93,17.93,0,0,0,1.59,2.32,2.21,2.21,0,0,0,2.55.6c.82-.47,1-1.43,1.24-2.28s.86-1.79,1.75-1.73,1.56,1.25,2.51,1.19a1.39,1.39,0,0,0,1.15-1.24,5.76,5.76,0,0,0,0-2.15Z" transform="translate(-6.95 -26.6)"/><g class="cls-8"><path d="M168.25,162.11a6,6,0,0,1,1.28-1.75,2.89,2.89,0,0,1-.54.95C168.62,161.78,168.3,162.15,168.25,162.11Z" transform="translate(-6.95 -26.6)"/></g><g class="cls-8"><path d="M175.26,161.77s-.27-.1-.53-.33-.44-.44-.4-.49.28.11.54.33S175.3,161.71,175.26,161.77Z" transform="translate(-6.95 -26.6)"/></g><g class="cls-8"><path d="M172.81,163.4s-.06.19-.22.32-.32.2-.36.15.07-.18.23-.31S172.78,163.36,172.81,163.4Z" transform="translate(-6.95 -26.6)"/></g><g class="cls-8"><path d="M181.92,160.37s-.25-.18-.44-.47-.31-.55-.26-.58.24.18.43.47S182,160.34,181.92,160.37Z" transform="translate(-6.95 -26.6)"/></g><g class="cls-8"><path d="M182.26,164c.05,0-.09.27-.4.38s-.55,0-.54,0a2.83,2.83,0,0,1,.47-.18C182,164.09,182.22,164,182.26,164Z" transform="translate(-6.95 -26.6)"/></g><g class="cls-8"><path d="M188.8,161c0,.05-.27-.12-.42-.44s-.1-.61,0-.61.11.25.23.53S188.84,160.91,188.8,161Z" transform="translate(-6.95 -26.6)"/></g><g class="cls-8"><path d="M189.74,163.43c0,.06-.18.15-.43.22s-.48.08-.5,0,.19-.16.44-.22S189.73,163.38,189.74,163.43Z" transform="translate(-6.95 -26.6)"/></g><g class="cls-8"><path d="M195,160.84c-.05,0-.22-.22-.4-.54a1.15,1.15,0,0,1-.2-.63c.05,0,.23.22.4.54S195,160.81,195,160.84Z" transform="translate(-6.95 -26.6)"/></g><g class="cls-8"><path d="M197.44,164.1s.11-.22.23-.47.18-.47.24-.46.09.27-.06.55S197.48,164.15,197.44,164.1Z" transform="translate(-6.95 -26.6)"/></g><g class="cls-8"><path d="M200.23,160.26s-.25-.2-.21-.56.31-.54.35-.49-.11.23-.14.51S200.29,160.23,200.23,160.26Z" transform="translate(-6.95 -26.6)"/></g><g class="cls-8"><path d="M205.41,163.05c-.06,0-.16-.24-.22-.56s-.07-.6,0-.61.16.24.22.56S205.47,163,205.41,163.05Z" transform="translate(-6.95 -26.6)"/></g><g class="cls-8"><path d="M207.94,162.46c-.05,0,0-.21.14-.4s.27-.32.32-.29,0,.22-.15.4S208,162.51,207.94,162.46Z" transform="translate(-6.95 -26.6)"/></g><g class="cls-8"><path d="M208.26,152.64s0-.18.09-.34.22-.27.27-.23,0,.18-.09.34S208.31,152.67,208.26,152.64Z" transform="translate(-6.95 -26.6)"/></g><g class="cls-8"><path d="M197.91,153.25s-.23-.22-.4-.54-.25-.6-.2-.63.23.22.4.54S198,153.22,197.91,153.25Z" transform="translate(-6.95 -26.6)"/></g><g class="cls-8"><path d="M199.19,150.33c-.05,0-.1,0-.1-.06s0-.05.1-.05.11,0,.11.05S199.27,150.33,199.19,150.33Z" transform="translate(-6.95 -26.6)"/></g><g class="cls-8"><path d="M190.23,152.91s.12-.32.38-.65.5-.55.54-.52-.13.33-.4.65S190.27,153,190.23,152.91Z" transform="translate(-6.95 -26.6)"/></g><g class="cls-8"><path d="M186.12,151.75c-.05,0,0-.24.08-.5s.22-.45.27-.43,0,.25-.07.5S186.18,151.75,186.12,151.75Z" transform="translate(-6.95 -26.6)"/></g><g class="cls-8"><path d="M183,153c0-.05.11-.17.3-.27s.37-.14.4-.08-.11.17-.3.26S183,153.07,183,153Z" transform="translate(-6.95 -26.6)"/></g><g class="cls-8"><path d="M175.83,152.44s-.16-.08-.26-.24-.14-.31-.09-.34.17.08.27.24S175.88,152.41,175.83,152.44Z" transform="translate(-6.95 -26.6)"/></g><g class="cls-8"><path d="M175.74,151.39c-.05,0,0-.15,0-.29s.15-.21.2-.18.05.15,0,.28S175.79,151.41,175.74,151.39Z" transform="translate(-6.95 -26.6)"/></g><g class="cls-8"><path d="M170.94,154.89c-.05,0-.24-.28-.44-.66a1.81,1.81,0,0,1-.26-.75s.25.27.45.66A1.54,1.54,0,0,1,170.94,154.89Z" transform="translate(-6.95 -26.6)"/></g><g class="cls-8"><ellipse cx="158.62" cy="126.18" rx="0.1" ry="0.35"/></g><g class="cls-8"><path d="M162.19,152.67c-.06,0-.07-.2,0-.43s.1-.39.16-.39.07.19,0,.42S162.25,152.67,162.19,152.67Z" transform="translate(-6.95 -26.6)"/></g><g class="cls-8"><path d="M175.5,154c0,.06-.2.18-.5.27s-.53.14-.55.08.2-.18.49-.27S175.48,153.9,175.5,154Z" transform="translate(-6.95 -26.6)"/></g><g class="cls-9"><path class="cls-7" d="M154.62,174.13a3.33,3.33,0,0,0,5.18-3.27,2.5,2.5,0,0,0,4.59-1.78,2.38,2.38,0,0,0,3.32-.1c.45-.49.72-1.19,1.57-1.17a1.47,1.47,0,0,1,1.05.53,4.41,4.41,0,0,1,.65,2.72,3.13,3.13,0,0,0,.73,2.14,1.26,1.26,0,0,0,2-.18c.19-.39.14-1,.56-1.15s.64.18.77.49a8.41,8.41,0,0,0,.31,1,1.48,1.48,0,0,0,1.88.42,4.22,4.22,0,0,0,1.49-1.45,5.58,5.58,0,0,0,.32,3.26,2.12,2.12,0,0,0,1.45,1.12c1.36.23,2.29-1.12,2.54-2.39s.15-2.79,1-3.93a1.33,1.33,0,0,1,1.14-.6c1,.06,1.14,1.32,1.9,1.75s1.82-.26,2.39-1,1.24-2,2.39-1.9a2,2,0,0,1,1.4.75c1.11,1.32.86,3.18,2,4.48a1.91,1.91,0,0,0,1.4.68c1.13,0,1.59-1,2.17-1.85s1.42-1.26,2.1-.79.65,1.59,1.4,1.81c.93.26,1.41-1.22,2.34-1.49,1.3-.37,2,1.7,3.31,2,1.07.28,2.06-.72,2.47-1.74.48-1.19.56-2.57,1.57-3.48a1.74,1.74,0,0,1,1.77-.36c.9.34.75,1.12,1,1.72.46,1,2.5,1.08,2.92.08l.27-3.49a1,1,0,0,0-.89-1H217l-60.84-.16a1.73,1.73,0,0,0-1.75,1.72v.08Z" transform="translate(-6.95 -26.6)"/></g><g class="cls-9"><path class="cls-7" d="M161.2,144.44a8.2,8.2,0,0,0,4.05,5,8.05,8.05,0,0,0,6.35.06c1.72-.73,3.42-2.09,5.22-1.62a7.8,7.8,0,0,1,2.49,1.6,3.07,3.07,0,0,0,2.74.77c1.46-.51,1.9-2.71,3.42-3s2.92,1.83,4.47,1.38c1.09-.31,1.54-1.76,2.63-2.1s2.14.55,3.25.45c.9-.07,1.66-.8,2.56-.83a3,3,0,0,1,2.31,1.41,17.93,17.93,0,0,0,1.59,2.32,2.21,2.21,0,0,0,2.55.6c.82-.47,1-1.43,1.24-2.28s.86-1.79,1.75-1.73,1.56,1.25,2.51,1.19a1.39,1.39,0,0,0,1.15-1.24,5.76,5.76,0,0,0,0-2.15Z" transform="translate(-6.95 -26.6)"/></g><g class="cls-9"><path class="cls-7" d="M197.21,125.7a2.66,2.66,0,0,0-1.19-.19c-6.3-.08-12.44.29-18.72.26a2,2,0,0,0-1.85,1.18,5,5,0,0,0-.37,1,3,3,0,0,0,.29,2.32,1.82,1.82,0,0,0,2.1.75c.72-.3,1.24-1.2,2-1.11,1,.1,1.28,1.74,2.29,1.91s1.5-.89,1.8-1.63a2.3,2.3,0,0,1,.63-.94c1.32-1.14,2.2.76,3.35.51.77-.18,1-1.2,1.66-1.64a1.84,1.84,0,0,1,2.07.16,5.81,5.81,0,0,1,1.37,1.71,3.46,3.46,0,0,0,1,1.2,1.25,1.25,0,0,0,1.46.05,1.65,1.65,0,0,0,.45-1.29,3.43,3.43,0,0,1,.15-1.39c.2-.43.76-.74,1.15-.48a2.05,2.05,0,0,0,0,1.1.74.74,0,0,0,.87.5c.37-.15.45-.62.48-1C198.28,127.56,198.22,126.18,197.21,125.7Z" transform="translate(-6.95 -26.6)"/></g><g class="cls-10"><path class="cls-7" d="M210.82,155.41c-10.94-.43-21.91-.86-32.84-.13-5,.33-10,.9-14.89-.05a4,4,0,0,0-1.71-.11,1.7,1.7,0,0,0-.55.25.63.63,0,0,0-.12.87.66.66,0,0,0,.36.23c8.45,1.72,17.13-.55,25.79-.16,2.9.13,5.8.56,8.7.43,2-.09,4-.42,5.95-.54,3.1-.17,6.22.2,9.31-.1.25,0,.58-.14.55-.4S211,155.42,210.82,155.41Z" transform="translate(-6.95 -26.6)"/></g></g><path class="cls-11" d="M178.92,50.4c-12,8.39-27.52,7.84-41.14,3.48s-26.13-12.14-39.4-17.66a128,128,0,0,0-34.61-9c-16.91-1.94-35.8.42-47.58,14C3.07,56.28,4.07,83.52,18.27,97.39c7.22,7,16.67,10.51,24.91,16s15.88,14.65,15.18,25.27c-.65,9.84-8.21,17.39-16,22.13-6,3.66-13.49,7.66-14.22,15.24-.7,7.34,5.56,13.09,11.53,16.36a65.5,65.5,0,0,0,63-.27c6.93-3.87,13.3-9,20.56-12,19.08-7.91,40.11,0,60.31,3a120.73,120.73,0,0,0,51.3-3.74c10-2.95,20.05-7.47,27.08-15.89,5.06-6.07,8.22-13.75,11.19-21.33q4.74-12.13,9.11-24.44c1.75-4.93,3.48-10,3.93-15.21.82-9.55-2.63-19-7.33-27-11.16-19.13-30-32.58-50.3-36s-41.89,3.26-57.67,17.86" transform="translate(-6.95 -26.6)"/></svg>