<svg xmlns="http://www.w3.org/2000/svg" xmlns:xlink="http://www.w3.org/1999/xlink" viewBox="0 0 910.15 664.71"><defs><style>.cls-1{fill:#ff8daa;}.cls-1,.cls-11,.cls-17,.cls-2,.cls-9{opacity:0.1;}.cls-1,.cls-11,.cls-15,.cls-2,.cls-20,.cls-4,.cls-9{isolation:isolate;}.cls-2{fill:url(#linear-gradient);}.cls-3{fill:#ffbe9d;}.cls-4{opacity:0.05;}.cls-5{fill:none;}.cls-6{fill:#65617d;}.cls-7{fill:#dce0ed;}.cls-8{fill:#fd9bb0;}.cls-10{fill:#ff86a0;}.cls-11,.cls-20{fill:#fff;}.cls-12{fill:#f96990;}.cls-13{fill:#444053;}.cls-14{fill:#db95a7;}.cls-15{opacity:0.12;}.cls-16{fill:#3b3b43;}.cls-18{fill:#dda2a6;}.cls-19{fill:#b77b7f;}.cls-20{opacity:0.3;}.cls-21{font-size:9.42px;fill:#ff92a9;font-family:AphroditeText, Aphrodite Text;}.cls-22{letter-spacing:-0.02em;}</style><linearGradient id="linear-gradient" x1="191.71" y1="645.05" x2="695.8" y2="645.05" gradientUnits="userSpaceOnUse"><stop offset="0" stop-color="#a58989"/><stop offset="1" stop-color="#c91818"/></linearGradient></defs><title>delivery</title><g id="Layer_2" data-name="Layer 2"><path class="cls-1" d="M618.09,223.44c-39.06,32.1-89.71,30-134.11,13.32s-85.16-46.43-128.42-67.56a368.75,368.75,0,0,0-112.82-34.53c-55.12-7.4-116.67,1.61-155.08,53.5-42.77,57.79-39.49,162,6.77,215.06,23.53,27,54.35,40.23,81.22,61.29s51.74,56.05,49.45,96.71c-2.12,37.65-26.75,66.53-52.23,84.66-19.7,14-44,29.3-46.34,58.31-2.3,28.08,18.1,50.07,37.58,62.58,63.55,40.81,141.85,40.42,205.16-1,22.59-14.79,43.35-34.45,67-46,62.19-30.26,130.72.2,196.57,11.34a337.34,337.34,0,0,0,167.19-14.29c32.62-11.31,65.35-28.59,88.26-60.8,16.52-23.22,26.81-52.61,36.48-81.63q15.45-46.42,29.71-93.5c5.7-18.84,11.32-38,12.79-58.21,2.67-36.53-8.58-72.63-23.89-103.46C907.05,246,845.8,194.57,779.5,181.49S643,194,591.5,249.83" transform="translate(-57.55 -132.41)"/></g><g id="Layer_1" data-name="Layer 1"><ellipse class="cls-2" cx="443.76" cy="645.05" rx="252.05" ry="11.73"/><path class="cls-3" d="M475.64,426.75S491.7,457.94,493,462.39a5.9,5.9,0,0,0,5.42,4.45s16,3.92,19.83,4.45,37,3.4,37,3.4,8.41.27,9.43-2.87c.93-2.88,17.19-18,26.6-4.8a9.78,9.78,0,0,1,1.36,8.57c-1.72,5.66-5.27,14.63-9.09,9.05-5.35-7.85-11.58-5.65-11.58-1.46s-8.57,2.63-11.37,3.22c-1.53.32-6.79,1.76-11.35,3A80.49,80.49,0,0,1,533,492.17c-9,.6-22.36,1.1-27.08-.72-5.7-2.23-15.64-2.74-19.9-2.86a6.39,6.39,0,0,1-3.87-1.42A61.76,61.76,0,0,1,467.46,470c-6.64-11.78-20.28-36.17-19.36-43.23S475.64,426.75,475.64,426.75Z" transform="translate(-57.55 -132.41)"/><path class="cls-4" d="M475.64,426.75S491.7,457.94,493,462.39a5.9,5.9,0,0,0,5.42,4.45s16,3.92,19.83,4.45,37,3.4,37,3.4,8.41.27,9.43-2.87c.93-2.88,17.19-18,26.6-4.8a9.78,9.78,0,0,1,1.36,8.57c-1.72,5.66-5.27,14.63-9.09,9.05-5.35-7.85-11.58-5.65-11.58-1.46s-8.57,2.63-11.37,3.22c-1.53.32-6.79,1.76-11.35,3A80.49,80.49,0,0,1,533,492.17c-9,.6-22.36,1.1-27.08-.72-5.7-2.23-15.64-2.74-19.9-2.86a6.39,6.39,0,0,1-3.87-1.42A61.76,61.76,0,0,1,467.46,470c-6.64-11.78-20.28-36.17-19.36-43.23S475.64,426.75,475.64,426.75Z" transform="translate(-57.55 -132.41)"/><path class="cls-5" d="M660,662.42c-7.28,8.12-12.63,11.32-12.38,2.75C648.35,639.26,604,522.11,604,522.11l13.12-1C645.73,571.73,656.38,623.8,660,662.42Z" transform="translate(-57.55 -132.41)"/><path class="cls-6" d="M722.55,719c-.06,35.78-28.37,64.73-63.23,64.67-32.7-.06-59.94-25.74-62.77-59.17-.09-1.05-.16-2.1-.19-3.14v-.06c0-.78-.05-1.56-.05-2.35,0-35.78,28.26-64.78,63.12-64.78s63.12,29,63.12,64.78Z" transform="translate(-57.55 -132.41)"/><ellipse class="cls-7" cx="601.88" cy="586.51" rx="34.43" ry="35.33"/><ellipse class="cls-6" cx="601.88" cy="586.51" rx="20.66" ry="21.2"/><path class="cls-6" d="M493.66,595.9l-152,3.14v-23c1.37-18.5,19.9-25,36.73-27a102.87,102.87,0,0,1,39.27,3c32.25,8.77,52.8,10.46,62.92,10.63a9.71,9.71,0,0,1,9.33,8.05c.49,2.63,1,5.5,1.4,8.33.34,2.21.66,4.39.95,6.43C493.1,591.33,493.66,595.9,493.66,595.9Z" transform="translate(-57.55 -132.41)"/><path class="cls-8" d="M614.93,723.1H299.17a12.44,12.44,0,0,1-11.52-7.64c-2.37-5.83,1-9.56,4.5-11.74A36.48,36.48,0,0,0,307.7,684.2c3.37-10.2,6.66-26.17,7.95-51.13,1.33-25.81,10.44-38.56,20.28-44.75h0c12.7-8,26.64-5,26.64-5l128,1a25,25,0,0,1,6.26,4.19c11.4,10.9-5.23,25.12-5.23,25.12-35.71,38.74-8.68,78-8.68,78h65.51a59.23,59.23,0,0,0,34.32-10.79c8.85-6.28,12.24-12.35,13.6-16,1-2.81,2-5.61,3.26-8.33,17.19-38.25-3.54-100.46-12.49-123.73-2.21-5.78-3.71-9.16-3.71-9.16L604,522.09l13-1h.13c28.63,50.67,39.28,102.74,42.85,141.33.34,3.63.61,7.16.83,10.54,1.64,26-17.54,48.37-42.85,50C616.94,723.07,615.93,723.1,614.93,723.1Z" transform="translate(-57.55 -132.41)"/><path class="cls-9" d="M492.27,585.48H341.66v-6.43H491.32C491.66,581.22,492,583.4,492.27,585.48Z" transform="translate(-57.55 -132.41)"/><path class="cls-9" d="M496.85,588.62H337.14a3.2,3.2,0,0,1-1.21-.25c12.71-8,26.64-5,26.64-5l128,1A24.28,24.28,0,0,1,496.85,588.62Z" transform="translate(-57.55 -132.41)"/><path class="cls-7" d="M281.26,580.58H498.18a3.17,3.17,0,0,1,3.13,3.21h0a3.17,3.17,0,0,1-3.13,3.21H281.26a3.17,3.17,0,0,1-3.13-3.21h0A3.17,3.17,0,0,1,281.26,580.58Z" transform="translate(-57.55 -132.41)"/><path class="cls-9" d="M660,662.42c-7.28,8.12-12.63,11.32-12.38,2.75C648.35,639.26,604,522.11,604,522.11l13.12-1C645.73,571.73,656.38,623.8,660,662.42Z" transform="translate(-57.55 -132.41)"/><path class="cls-9" d="M722.17,711.82c-7.53,1.85-16.83,3.73-28.31,5.49-4.27.65-8.86,1.26-13.77,1.86-11.73,1.42-25.29,2.67-41,3.63q-6.66.41-13.83.75-13.42.63-28.74,1l-.2-3.14v-.05c14.27-5.91,36.73-21.69,40.34-62.77,32.55-12.88,69.1,3.77,81.64,37.16a66.48,66.48,0,0,1,3.84,16.18Z" transform="translate(-57.55 -132.41)"/><path class="cls-10" d="M584.46,723.1S656.92,715,632,601.74c0,0,35.8,33.68,58.07,52.4s62,44.53,62,44.53S728.3,721.4,584.46,723.1Z" transform="translate(-57.55 -132.41)"/><path class="cls-11" d="M584.46,723.1S656.92,715,632,601.74c0,0,35.8,33.68,58.07,52.4s62,44.53,62,44.53S728.3,721.4,584.46,723.1Z" transform="translate(-57.55 -132.41)"/><ellipse class="cls-6" cx="333.33" cy="586.51" rx="63.12" ry="64.78"/><ellipse class="cls-7" cx="333.33" cy="586.51" rx="34.43" ry="35.33"/><ellipse class="cls-6" cx="333.33" cy="586.51" rx="20.66" ry="21.2"/><path class="cls-9" d="M461.66,699.46c0-41.83-32.37-75.74-72.31-75.74s-72.3,33.91-72.3,75.74q0,2.65.18,5.25H461.48Q461.66,702.12,461.66,699.46Z" transform="translate(-57.55 -132.41)"/><path class="cls-12" d="M459,698.15c0-40.27-31.17-72.93-69.63-72.93s-69.62,32.66-69.62,72.93c0,1.71.06,3.39.17,5.06H458.81C458.92,701.54,459,699.86,459,698.15Z" transform="translate(-57.55 -132.41)"/><path class="cls-11" d="M459,698.15c0,1.17,0,2.36-.08,3.49,0,.53-.06,1.05-.09,1.57H319.9c0-.52-.06-1-.09-1.57-.05-1.15-.08-2.35-.08-3.49,0-40.27,31.17-72.93,69.62-72.93S459,657.88,459,698.15Z" transform="translate(-57.55 -132.41)"/><path class="cls-9" d="M458.9,701.68c0,.53-.06,1-.09,1.57H319.9c0-.53-.06-1-.09-1.57Z" transform="translate(-57.55 -132.41)"/><path class="cls-9" d="M297.43,704.78H468.16a8.27,8.27,0,0,1,8.16,8.38h0a8.27,8.27,0,0,1-8.16,8.37H297.43a8.27,8.27,0,0,1-8.16-8.37h0A8.27,8.27,0,0,1,297.43,704.78Z" transform="translate(-57.55 -132.41)"/><path class="cls-7" d="M297.43,703.21H468.16a8.27,8.27,0,0,1,8.16,8.38h0a8.27,8.27,0,0,1-8.16,8.37H297.43a8.27,8.27,0,0,1-8.16-8.37h0A8.27,8.27,0,0,1,297.43,703.21Z" transform="translate(-57.55 -132.41)"/><ellipse class="cls-9" cx="638" cy="572.4" rx="9.21" ry="23.58" transform="translate(-233.25 170.58) rotate(-23.58)"/><ellipse class="cls-7" cx="638.77" cy="571.62" rx="9.21" ry="23.58" transform="translate(-232.87 170.82) rotate(-23.58)"/><path class="cls-9" d="M617,521.09V533.4H593.64a39.29,39.29,0,0,1-6.49-.54c-2.22-5.78-3.71-9.16-3.71-9.16L604,522.13Z" transform="translate(-57.55 -132.41)"/><path class="cls-10" d="M617,531.79H593.64c-20.5,0-37.11-15.7-37.11-35.15v-3.26c0-19.4,16.61-35.14,37.11-35.14L617,460.42Z" transform="translate(-57.55 -132.41)"/><path class="cls-10" d="M578.53,479.05s14,7.65,5.93,20.61c0,0-9.86,16.58-25.35,15l-5.64-35.62S572,477.28,578.53,479.05Z" transform="translate(-57.55 -132.41)"/><path class="cls-9" d="M573.17,478.36a14.71,14.71,0,0,1,11.35,6.14c2.49,3.53,4,8.68,0,15.16,0,0-9.85,16.58-25.34,15l-5.64-35.62A159.93,159.93,0,0,1,573.17,478.36Z" transform="translate(-57.55 -132.41)"/><path class="cls-9" d="M616.21,460.42h4.5A14.44,14.44,0,0,1,635,475v42.14a14.44,14.44,0,0,1-14.25,14.62h-4.5V460.42Z" transform="translate(-57.55 -132.41)"/><path class="cls-7" d="M617,460.42h4.5A14.43,14.43,0,0,1,635.72,475v42.14a14.43,14.43,0,0,1-14.24,14.62H617V460.42Z" transform="translate(-57.55 -132.41)"/><path class="cls-3" d="M451.3,552.09s3.6,1.35,8.41,3.24c7.66,3,18.44,7.43,22.19,9.85s17.73,6.39,28.2,9.19a89.55,89.55,0,0,0,23.76,3c8.14-.08,18-.15,20.73-.15a7.49,7.49,0,0,1,1.42.11c2.86.48,2.75,2.45,2.68,2.92v.11c-16.83,10.46-37.24,57.31-38.51,65.17-1,5.88-9.36,22.21-13.51,30-1.39,2.62-2.3,4.27-2.3,4.27l5.11,6,14.79,6.81,14,6.28s14.8.78,15.05,0,.25-8.9.25-8.9a41.77,41.77,0,0,1-5.11-4,86.28,86.28,0,0,1-9.42-9.88c-8.16-9.95,8.16-29,8.16-29l31.37-41.88s2.55-4.71,14.79-23.55,0-29,0-29l-21.55-9.18c-37.36-14.35-82.44-25.86-82.44-25.86l-.64-.08-9.56-1.23Z" transform="translate(-57.55 -132.41)"/><path class="cls-13" d="M547.57,692.64s2.68,3.24.68,3.53-7.27-.88-7.27-.88L507.6,677.23s-3.64-2.65-4.5,2.55-1.43,4.71-1.43,4.71-4.4,9.72,0,11.73,30.82,10,30.82,10,38.36,8.93,42-1.37-6.5-8.54-6.5-8.54-12.63-3.14-16.93-9.42C551,686.85,544.8,688.62,547.57,692.64Z" transform="translate(-57.55 -132.41)"/><path class="cls-4" d="M593.35,552.62l-21.55-9.18c-37.36-14.35-82.44-25.86-82.44-25.86l-.64-.08-9.56-1.23L451.3,552.09s3.6,1.35,8.41,3.24c7.66,3,18.44,7.43,22.19,9.85s17.73,6.39,28.2,9.19a89.55,89.55,0,0,0,23.76,3c8.14-.08,18-.15,20.73-.15a7.49,7.49,0,0,1,1.42.11c2.86.48,2.75,2.45,2.68,2.92v.11c-16.83,10.46-37.24,57.31-38.51,65.17-1,5.88-9.36,22.21-13.51,30l-.56,1.05c-1.11-.18-2.49.22-3,3.19-.87,5.2-1.44,4.71-1.44,4.71s-4.4,9.72,0,11.73,30.8,10,30.8,10,38.36,8.93,42-1.37-6.5-8.54-6.5-8.54-12.63-3.14-16.93-9.42a7.16,7.16,0,0,0-1.12.42c-.45-.37-.93-.78-1.45-1.24a86.28,86.28,0,0,1-9.42-9.88c-8.16-9.95,8.16-29,8.16-29l31.37-41.88s2.55-4.71,14.79-23.55S593.35,552.62,593.35,552.62Z" transform="translate(-57.55 -132.41)"/><path class="cls-3" d="M425.61,377l1.16,1.51.65.84,4.05,5.24s9.68,3.19,18.17,5.25C458.47,392,466,392.9,460,387.77c-3.72-3.18-4-8.5-2.61-14.21a59.43,59.43,0,0,1,4.87-12.64c.3-.6.6-1.18.89-1.74a104.27,104.27,0,0,1,6.31-10.45,180.29,180.29,0,0,0-16.9-10.66c-7-3.72-12.77-5.35-9.12,2,2.34,4.71,1.58,10-.61,15.07-.17.4-.35.78-.54,1.2a54.55,54.55,0,0,1-7.22,10.9A85.38,85.38,0,0,1,425.61,377Z" transform="translate(-57.55 -132.41)"/><polygon class="cls-13" points="416.51 364.18 421.7 369.04 426.71 388.83 418.35 388.83 409.12 376.5 416.51 364.18"/><polygon class="cls-9" points="409.12 376.5 414.7 383.95 418.35 388.83 426.71 388.83 425.86 385.44 422.21 371.03 421.7 369.04 416.51 364.18 409.43 375.97 409.12 376.5"/><polygon class="cls-9" points="409.12 376.5 414.7 383.95 418.35 388.83 426.71 388.83 425.86 385.44 422.21 371.03 421.7 369.04 416.51 364.18 409.43 375.97 409.12 376.5"/><path class="cls-3" d="M438.87,561s3.61,1.35,8.42,3.24c7.65,3,18.44,7.43,22.19,9.85s17.72,6.39,28.19,9.19a89.58,89.58,0,0,0,23.77,3c8.14-.08,18-.16,20.72-.16a9.73,9.73,0,0,1,1.43.11c2.86.49,2.74,2.46,2.67,2.93v.1c-16.83,10.47-37.23,57.32-38.5,65.17-1,5.89-9.37,22.22-13.52,30C492.85,687,492,688.7,492,688.7l5.1,6,14.78,6.8,14,6.28s14.8.78,15,0,.25-8.9.25-8.9a41.77,41.77,0,0,1-5.11-4,86.37,86.37,0,0,1-9.43-9.88c-8.15-9.95,8.17-29,8.17-29l31.37-41.88s2.55-4.71,14.79-23.55,0-29,0-29L561.31,550c-30.6-19.1-73.71-30.1-73.71-30.1l-.64-.08-9.56-1.23Z" transform="translate(-57.55 -132.41)"/><path class="cls-9" d="M491.94,688.69l5.1,6,14.79,6.81,14,6.28s14.8.78,15,0,.25-8.9.25-8.9a41.77,41.77,0,0,1-5.11-4c-1.58.87-3.38,2.51-1.65,5,0,0,2.68,3.24.68,3.54s-7.27-.88-7.27-.88l-33.38-18.06-.19-.13Z" transform="translate(-57.55 -132.41)"/><path class="cls-13" d="M535.15,701.52s2.67,3.23.66,3.53-7.27-.89-7.27-.89L495.17,686.1s-3.63-2.64-4.5,2.55-1.43,4.72-1.43,4.72-4.4,9.72,0,11.73S520,715,520,715s38.34,8.93,42-1.38-6.51-8.54-6.51-8.54-12.62-3.14-16.92-9.42C538.61,695.72,532.37,697.49,535.15,701.52Z" transform="translate(-57.55 -132.41)"/><path class="cls-9" d="M440.91,353.16c4.42,3.14,11.17,8.11,16.93,8.11a27.51,27.51,0,0,0,4.44-.36,105.7,105.7,0,0,1,7.2-12.19s-33.67-24.08-26-8.64C446,345.22,443.5,347.74,440.91,353.16Z" transform="translate(-57.55 -132.41)"/><path class="cls-3" d="M430.3,331.44a28.41,28.41,0,0,0,12.55,23.71,26.92,26.92,0,0,0,2.69,1.57A27.23,27.23,0,0,0,482.49,344c6.79-14,1.26-30.94-12.35-37.91a27.23,27.23,0,0,0-36.95,12.68,28.91,28.91,0,0,0-2.89,12.61Z" transform="translate(-57.55 -132.41)"/><path class="cls-9" d="M438.87,561s3.61,1.35,8.42,3.24c3-2.74,6.12-5.37,7.41-5.85,2.81-1.06,12-6.55,11.74-8.12s3.83-7.59,7.39-8.64,1.53-6.54,1.53-6.54,6.89-2.61,8.6-6.28,7-8.38,5.17-8.11a5.6,5.6,0,0,1-2.17-.87l-9.56-1.23Z" transform="translate(-57.55 -132.41)"/><path class="cls-13" d="M418,551.55s11.74,10,12.28,14.39,8.38,4.19,8.38,4.19,11.74-11.51,14.54-12.56,12-6.55,11.74-8.12,3.82-7.58,7.39-8.63,1.53-6.54,1.53-6.54,6.88-2.62,8.6-6.29,7-8.37,5.17-8.11c-.51.07-2.12-.78-4.17-2-2.52-1.57-5.71-3.7-8.31-5.5-2.75-1.91-4.86-3.44-4.86-3.44s-1.2-.21-3.26-.52c-11.1-1.65-47.26-5.86-55.65,7.85a21,21,0,0,0-2.49,5.87C405.08,536.71,418,551.55,418,551.55Z" transform="translate(-57.55 -132.41)"/><path class="cls-9" d="M430.23,519.81s-12,6.94-16.45,6.94S430.23,519.81,430.23,519.81Z" transform="translate(-57.55 -132.41)"/><path class="cls-9" d="M438.23,525.11s-17.84,6.16-17.84,11S418.72,523.15,438.23,525.11Z" transform="translate(-57.55 -132.41)"/><path class="cls-9" d="M481,497.39l-.26.35A.75.75,0,0,0,481,497.39Z" transform="translate(-57.55 -132.41)"/><path class="cls-9" d="M425.61,377l1.16,1.51.65.84,4.05,5.24s9.68,3.19,18.17,5.25C458.47,392,466,392.9,460,387.77c-3.72-3.18-4-8.5-2.61-14.21l-.27-.35s.27,5.29-2.78,5.39c-4.12.13-4.17-1.29-8-2.93-4.89-2.12-9.9-5.66-11.3-8.41A86.21,86.21,0,0,1,425.61,377Z" transform="translate(-57.55 -132.41)"/><path class="cls-9" d="M408.84,522.08a8.64,8.64,0,0,0,6.57.16c7.9-2.62,20.4-8.94,26.26-6.17,4.7,2.21,23.62,2.15,30.61.29,1.73-.47,2.73-1,2.58-1.71a4.85,4.85,0,0,1,.26-2.3c.81-2.67,3-6.36,4.66-8.92l-.5-2-5.19-4.86L467,508.37c-11.11-1.65-47.27-5.86-55.66,7.85A21.13,21.13,0,0,0,408.84,522.08Z" transform="translate(-57.55 -132.41)"/><path class="cls-14" d="M403.68,516s3.06,7.32,11,4.71,20.41-8.94,26.27-6.17,33.92,2,33.16-1.42S481,498.94,481,498.94s-4.17-.78-6.76-14.78c-.38-2-.73-4.37-1-7a91.42,91.42,0,0,1-.44-16.29c1-15.15,6.2-21.34,6.2-21.34s7.14-8.37,1-19.89c-3.2-6-16.14-22.77-16.32-30.23-.16-6.77-6.46-14.63-6.46-14.63s.26,5.29-2.79,5.39c-4.12.14-4.17-1.29-8-2.93-5.58-2.42-11.31-6.68-11.69-9.53,0,0-23.38-1.2-28.48,23.14s-3.32,37.69-2.55,40.57,7.39,40,2,55.75A55.42,55.42,0,0,0,403.68,516Z" transform="translate(-57.55 -132.41)"/><path class="cls-9" d="M441.8,473.2a60.91,60.91,0,0,0,16.58,18.58,113.05,113.05,0,0,1,13.38.92c-.38-2-.76-4.36-1-7a92.37,92.37,0,0,1-.45-16.29,5.91,5.91,0,0,1-3-3.8C466,461.16,454.65,440,454.65,440S428,432.9,427.1,440,435.17,461.42,441.8,473.2Z" transform="translate(-57.55 -132.41)"/><path class="cls-3" d="M450.62,426.75s16.07,31.19,17.32,35.64a5.9,5.9,0,0,0,5.42,4.45s16,3.92,19.83,4.45,37,3.4,37,3.4,8.41.27,9.43-2.87c.93-2.88,17.19-18,26.6-4.8a9.82,9.82,0,0,1,1.37,8.57c-1.73,5.66-5.28,14.63-9.09,9.05-5.36-7.85-11.59-5.65-11.59-1.46s-8.57,2.63-11.37,3.22c-1.53.32-6.79,1.76-11.34,3a81.09,81.09,0,0,1-16.2,2.76c-9,.6-22.36,1.1-27.08-.73-5.69-2.22-15.63-2.73-19.89-2.85a6.42,6.42,0,0,1-3.88-1.42A61.72,61.72,0,0,1,442.44,470c-6.64-11.78-20.28-36.17-19.36-43.23S450.62,426.75,450.62,426.75Z" transform="translate(-57.55 -132.41)"/><path class="cls-15" d="M445.27,383.52s8.61,14.66,12.59,25.13,8.83,28.79,8.83,28.79l-24-2.88-2-3.4s-17.13,11-15.08,15.7-4.59-7.06-4.08-20.41-1.84-37.17,0-42.93S439.63,379.07,445.27,383.52Z" transform="translate(-57.55 -132.41)"/><path class="cls-14" d="M421.55,424.88c-.51,13.35,6.12,25.12,4.08,20.41s15.08-15.7,15.08-15.7l2,3.4,24,2.88s-4.84-18.32-8.83-28.79a160.42,160.42,0,0,0-8.2-17.27c-2.46-4.58-4.39-7.86-4.39-7.86-3.3-2.61-10.3-4.14-15.89-3.78a20.58,20.58,0,0,0-2.59.32c-2.29.46-4.15,1.36-5,2.77a3.55,3.55,0,0,0-.31.69C419.68,387.71,422,411.53,421.55,424.88Z" transform="translate(-57.55 -132.41)"/><path class="cls-9" d="M410.84,461.42S421,475.75,424,476.14C424,476.17,411,473.2,410.84,461.42Z" transform="translate(-57.55 -132.41)"/><path class="cls-9" d="M410.84,481.83s19.13,19.83,25.25,20S410.84,481.83,410.84,481.83Z" transform="translate(-57.55 -132.41)"/><path class="cls-9" d="M410.84,490.11s12.24,14.72,13,14.72S410.62,499.73,410.84,490.11Z" transform="translate(-57.55 -132.41)"/><path class="cls-9" d="M421.8,381.26a16.6,16.6,0,0,0,5.62-1.93,22.58,22.58,0,0,0,1.94-1.16,46.13,46.13,0,0,0,7-5.89c3.52-3.51,7-7.34,8.49-12.15a23.07,23.07,0,0,0,.71-3.4c.88-6,.14-12.7,4.35-16.81a10.19,10.19,0,0,1,2.69-1.86c6-2.91,14.62-1,19.07-6.28,2.83-3.33,2.76-7.95,4.94-11.57.94-1.57,2.69-2.93,4.23-4.37a27.12,27.12,0,0,0-38.14-8.11,28.72,28.72,0,0,0-7.9,39.14,27.74,27.74,0,0,0,8.07,8.22c-.17.4-.35.79-.54,1.2-5.26,11-16.7,20.64-16.7,20.64l1.16,1.51C424.45,379,422.62,379.85,421.8,381.26Z" transform="translate(-57.55 -132.41)"/><path class="cls-16" d="M470.12,331c-5.18,6.1-16.07,2.55-21.77,8.13-5,4.89-3,13.43-5.06,20.2-1.45,4.81-5,8.64-8.48,12.16-5.13,5.11-11.68,10.31-18.69,8.84-4.16-.87-8.23-4-12.24-2.59-2,.74-3.43,2.52-4.92,4.08a33.62,33.62,0,0,1-18.8,10,7.91,7.91,0,0,1-4.26-.21c-2.15-.89-3.3-3.29-5.25-4.57-3.83-2.52-8.74.06-12.71,2.3a86.9,86.9,0,0,1-73.06,5.4l6.19-3.14c-1.31-2.76-4.87-3.36-7.13-5.38-4.67-4.15-1.92-12.46,3-16.27s11.32-5.13,16.44-8.69a4.35,4.35,0,0,0,2.19-3,4.87,4.87,0,0,0-.83-2.62c-2.73-4.93-5.74-10.21-5.13-15.84.93-8.64,10.12-13.94,18.56-14.55s16.8,2,25.25,2.15c3.06.06,6.27-.25,8.89-1.87,3.67-2.27,5.51-6.58,7.74-10.32a41.43,41.43,0,0,1,16.45-15.56c7.65-4,16.31-5.36,24.27-8.64,8.12-3.34,15.51-8.64,24-10.76,12.35-3.15,25.57,1,36.22,8.06,5.14,3.41,21.54,14.38,21.43,21.39-.09,4.16-5.36,6.41-7.35,9.68C472.88,323.06,473,327.68,470.12,331Z" transform="translate(-57.55 -132.41)"/><g class="cls-17"><path d="M304,351.73a4.9,4.9,0,0,1,.83,2.63,2.65,2.65,0,0,1-.27.95c-2.25-4.07-4.59-8.38-5-12.92A49.7,49.7,0,0,0,304,351.73Z" transform="translate(-57.55 -132.41)"/><path d="M283.19,382.28c2.25,2,5.81,2.62,7.13,5.37l-2.18,1.12A24,24,0,0,1,284,386.2a7.52,7.52,0,0,1-2.39-6.1A6.85,6.85,0,0,0,283.19,382.28Z" transform="translate(-57.55 -132.41)"/><path d="M357.19,385.41c4-2.25,8.89-4.82,12.71-2.31,1.94,1.28,3.1,3.68,5.25,4.58a7.78,7.78,0,0,0,4.25.2,33.62,33.62,0,0,0,18.81-10c1.48-1.57,2.91-3.33,4.92-4.07,4-1.47,8.06,1.72,12.24,2.59,7,1.47,13.56-3.73,18.69-8.85,3.52-3.51,7-7.34,8.48-12.15,2-6.78.06-15.32,5.06-20.21,5.72-5.58,16.58-2,21.77-8.12,2.82-3.33,2.76-8,4.93-11.58,1.84-3.05,6.6-5.22,7.27-8.9a6.89,6.89,0,0,1,.85,3.14c-.08,4.16-5.35,6.42-7.35,9.68-2.17,3.62-2.11,8.25-4.93,11.57-5.19,6.1-16.07,2.55-21.77,8.13-5,4.89-3,13.43-5.07,20.2-1.45,4.82-5,8.64-8.48,12.16-5.13,5.12-11.68,10.31-18.69,8.85-4.16-.87-8.23-4.06-12.24-2.59-2,.73-3.43,2.51-4.92,4.07a33.62,33.62,0,0,1-18.81,10,7.78,7.78,0,0,1-4.25-.2c-2.14-.9-3.3-3.3-5.25-4.58-3.82-2.51-8.74.06-12.71,2.31a86.91,86.91,0,0,1-73.05,5.39l4.28-2.17A87.12,87.12,0,0,0,357.19,385.41Z" transform="translate(-57.55 -132.41)"/></g><path class="cls-9" d="M546.26,589.13l6.44-3.19v-1.25c0-.48-5.14.58-9.11,1.48C546.45,586.69,546.33,588.66,546.26,589.13Z" transform="translate(-57.55 -132.41)"/><ellipse class="cls-10" cx="494.3" cy="365.17" rx="15.5" ry="19.35"/><polygon class="cls-18" points="345.11 339.98 320.19 365.2 238.26 363.73 260.79 339.98 345.11 339.98"/><polygon class="cls-19" points="345.11 426.25 345.11 339.98 320.19 365.2 320.19 449.62 345.11 426.25"/><polygon class="cls-18" points="238.26 363.73 238.26 449.62 320.19 449.62 320.19 365.2 238.26 363.73"/><polygon class="cls-20" points="238.26 363.73 238.26 449.62 320.19 449.62 320.19 365.2 238.26 363.73"/><polygon class="cls-7" points="313.53 388.84 252.6 378.11 244.66 419.16 307.38 430.98 313.53 388.84"/><polygon class="cls-6" points="335.03 385.26 333.92 351.3 327.52 357.78 328.63 391.82 335.03 385.26"/><polygon class="cls-6" points="252.55 348.67 331.27 349.76 333.92 351.3 327.52 357.78 325.3 356.45 247.33 354.18 252.55 348.67"/><text class="cls-21" transform="translate(264.79 396.27) scale(0.97 1)">Doc<tspan class="cls-22" x="22.26" y="0">e</tspan><tspan x="26.12" y="0">s </tspan><tspan x="6.64" y="11.31">da</tspan><tspan x="2.72" y="22.61">Louise</tspan></text></g></svg>