<svg id="Layer_1" data-name="Layer 1" xmlns="http://www.w3.org/2000/svg" viewBox="0 0 223.78 365.61"><defs><style>.cls-1{fill:#fee9e8;}</style></defs><path class="cls-1" d="M371.19,436.11a163,163,0,0,1-21.91,17.3c-14.77,9.74-22.34,14.58-31.76,13.09-9.63-1.52-19.63-9.29-21.57-18.76-1.37-6.72,2.45-8.75,6.16-23.64,2.95-11.8,5-19.86,2.26-28.84-3-9.95-11-18.52-20.54-21.84-1.79-.62-7.54-2.42-22.75.81-17.89,3.8-20.44,8.52-36.7,13-11.48,3.19-22.92,6.38-36.6,2.74a54.25,54.25,0,0,1-26.52-16.75c-10.93-12.75-13.15-27.39-13.5-35.18-.61-13.4,3.53-23.16,7.23-31.88,6.79-16,16.09-26.09,25.06-35.82A185.43,185.43,0,0,1,201,251a240.19,240.19,0,0,1,36.81-24.38c5.5-3,4.1-2,33.76-16.16,12.23-5.86,18.34-8.79,20.86-10.1,18-9.44,28.19-14.75,38.8-25.39a105.05,105.05,0,0,0,17-22.51c4.52-8.11,5.62-12.74,11.12-25.66,4.22-9.9,8.39-18.49,12.12-25.64Z" transform="translate(-147.7 -101.16)"/></svg>