<?xml version="1.0" encoding="utf-8"?>
<!-- Generator: Adobe Illustrator 23.0.0, SVG Export Plug-In . SVG Version: 6.00 Build 0)  -->
<svg version="1.1" id="Layer_1" xmlns="http://www.w3.org/2000/svg" xmlns:xlink="http://www.w3.org/1999/xlink" x="0px" y="0px"
	 viewBox="0 0 200 250" style="enable-background:new 0 0 200 250;" xml:space="preserve">
<style type="text/css">
	.st0{fill:#FFFFFF;}
</style>
<path class="st0" d="M200,13.7c-2.3,0.4-5.4,1.2-9,2.7c-5.6,2.3-9.3,5.1-12.7,7.7c-2.8,2.2-7.2,5.5-11.6,10.8
	c-1.4,1.7-7.7,9.3-11.8,21.6c-2.3,6.7-3,13.4-4.4,26.8c-1.3,12.8-0.8,14.5-2.3,23.3c-1.7,10.2-2.7,15.4-6.2,20.8
	c-1.9,2.9-7.5,10.5-16.8,13.5c-0.9,0.3-0.4,0.1-5.6,1.2c-7.3,1.6-10.7,2.6-17,4.2c-10.5,2.6-15.7,3.9-20.3,4.4
	c-4.1,0.5-7,0.5-13.9,1.5c-3.4,0.5-5.6,0.8-8.7,1.5c-6.9,1.5-15.4,4.8-15.4,4.8c-6,2.3-9,3.5-12.7,5.6c-6.1,3.5-9.8,6.9-13.7,10.4
	c-3.2,2.9-4.7,4.7-6,7.1c-1.1,2.1-2.8,5.2-2.1,8.3c0.6,2.7,3,5,8.3,7.5c9.7,4.4,16.8,3.7,35.1,5.6c6.5,0.7,4.9,0.7,12.2,1.5
	c12.2,1.3,15.2,1.1,29.3,2.3c7.8,0.7,13.4,1.2,21.2,2.3c4.1,0.6,10.5,1.6,18.5,3.5c11.8,2.8,16.3,5,20.1,8.5c0.5,0.4,1.8,2.6,4.4,5
	c1.4,1.3,2.6,2.2,3.3,2.7c1.2,0.9,3.7,2.5,7.1,3.7c2.3,0.9,3.5,1,7.9,1.9c10.2,2,11.1,2.6,15.6,2.9c3.1,0.2,5.7,0.1,7.3,0V13.7z"/>
</svg>
