<?xml version="1.0" encoding="utf-8"?>
<!-- Generator: Adobe Illustrator 23.0.0, SVG Export Plug-In . SVG Version: 6.00 Build 0)  -->
<svg version="1.1" id="Layer_1" xmlns="http://www.w3.org/2000/svg" xmlns:xlink="http://www.w3.org/1999/xlink" x="0px" y="0px"
	 viewBox="0 0 132 51" style="enable-background:new 0 0 132 51;" xml:space="preserve">
<style type="text/css">
	.st0{fill:#FDE5E2;}
	.st1{opacity:0.7;fill:#FCCAC6;enable-background:new    ;}
	.st2{fill:#FCCAC6;}
</style>
<title>waves-mobile</title>
<path class="st0" d="M0,20.6c3.3,0.4,7.8,0.9,13.2,1.1c7.7,0.2,15.4-0.1,23.1-1.1c8-0.9,14-2,20.9-3.3c4.3-0.8,9.1-1.7,15.4-3.3
	c1.4-0.4,7.3-1.8,15.4-4.3c9.1-2.9,9.5-3.4,16.5-5.4c4.7-1.4,9.5-2.5,14.3-3.3c4.4-0.7,8.8-1,13.2-1.1v31.5L0,33.6V20.6z"/>
<path class="st1" d="M0,19.4c10.2-1.9,20.5-3.1,30.8-3.7c9.6-0.5,15.8-0.8,24.2,0c8.2,0.8,11,2,22,2.9c6.4,0.5,11.2,0.6,15.4,0.7
	c11.2,0.2,20.1-0.3,28.6-0.7c4.6-0.3,8.4-0.5,11-0.7v21.2L0,38.6V19.4z"/>
<image style="overflow:visible;opacity:0.74;enable-background:new    ;" width="132" height="38" xlink:href="7350A539.png"  transform="matrix(-1 0 0 -0.97 132 50.515)">
</image>
<path class="st2" d="M0,35.8c6.8,0.2,18.4,0.6,33,1.1c15.8,0.5,26.4,0.8,39.6,0c6.3-0.4,12.5-1.1,18.7-2.2c4.8-0.8,9.6-1.9,14.3-3.3
	c5.8-1.6,10.1-3.2,13.2-4.3c5.1-1.9,9.5-3.8,13.2-5.4V51H0V35.8z"/>
</svg>
