<?xml version="1.0" encoding="utf-8"?>
<!-- Generator: Adobe Illustrator 23.0.0, SVG Export Plug-In . SVG Version: 6.00 Build 0)  -->
<svg version="1.1" id="Layer_1" xmlns="http://www.w3.org/2000/svg" xmlns:xlink="http://www.w3.org/1999/xlink" x="0px" y="0px"
	 viewBox="0 0 1962 292.2" style="enable-background:new 0 0 1962 292.2;" xml:space="preserve">
<path d="M1962,190.7c-7.6,3-15.3,5.5-23.2,7.7c-34.2,9.6-64.6,10.1-99.6,7.7c-38.8-2.6-77.4-8.3-115.4-17
	c-55.3-12.7-62.1-19.8-148.6-44.9c-45.3-13.1-80-21.8-104.3-27.9c-16.2-4-71.9-17.8-153.4-34.1c-87.8-17.6-131.7-26.3-170.8-27.9
	c-13.1-0.5-64-2.1-129.7,7.7c-60.3,9-106.7,23.6-134.4,32.5c-56.4,18.1-57,23.9-101.2,35.6c-11.5,3-56,14.5-117,18.6
	c-44.2,3-52.6-0.9-147-4.6c-53.5-2.1-92-2.6-143.9-3.1c-75.8-0.8-113.7-1.2-150.2,1.6c-83.8,6.3-128.8,19.5-140.8,23.2
	c-27.9,8.5-55.1,19.4-81.2,32.5V3H1962V190.7z"/>
</svg>
