<svg xmlns="http://www.w3.org/2000/svg" xmlns:xlink="http://www.w3.org/1999/xlink" viewBox="0 0 1920 367"><defs><style>.cls-1{opacity:0.5;}.cls-2{fill:url(#linear-gradient);}.cls-3{opacity:0.4;}.cls-4{fill:url(#linear-gradient-2);}.cls-5{fill:url(#linear-gradient-3);}</style><linearGradient id="linear-gradient" y1="408.14" x2="1920" y2="408.14" gradientUnits="userSpaceOnUse"><stop offset="0" stop-color="#fbc6c2"/><stop offset="1" stop-color="#fe8b8b"/></linearGradient><linearGradient id="linear-gradient-2" y1="411.07" x2="1920" y2="411.07" gradientUnits="userSpaceOnUse"><stop offset="0" stop-color="#fbc6c2"/><stop offset="0.21" stop-color="#fcb9b6"/><stop offset="1" stop-color="#fe8b8b"/></linearGradient><linearGradient id="linear-gradient-3" y1="504" x2="1920" y2="504" gradientUnits="userSpaceOnUse"><stop offset="0" stop-color="#ffccc7"/><stop offset="0.33" stop-color="#ffb8b5"/><stop offset="1" stop-color="#ff9493"/></linearGradient></defs><title>waves-footer</title><g id="Layer_4" data-name="Layer 4" class="cls-1"><path class="cls-2" d="M0,249c10.43,1.56,24.89,4.05,42,8,16.28,3.8,28.48,7.45,38,10.34,34,10.33,53.74,16.33,86,27.57,35.54,12.38,61.22,22.38,104,39.05,26.49,10.33,57.37,22.63,64,25.27,44,17.55,44.75,18.17,58,23,11.09,4,32.88,10.78,76,24.12,49.3,15.26,54.6,16.66,64,18.38,14.11,2.58,24.45,3.48,47,8,18.47,3.74,31.65,7.2,35,8,22.92,5.76,101.33,18.38,190-4.59,38.76-10,67.18-23.93,124-51.69,44-21.52,60.11-32.94,102-48.25,46.82-17.1,81.3-22.76,90-24.12,35.58-5.56,62.32-5.09,91-4.6,40,.7,72.63,4.72,99,8,31.9,4,30.8,5.21,56,8a735.86,735.86,0,0,0,96,4.6,668.23,668.23,0,0,0,112-11.49s93.33-18.2,236-74.66a123.5,123.5,0,0,1,31-8c5.45-.68,17-2,29,0,23.41,4,40.62,19.51,50,29.86V548.82L0,583.28Z" transform="translate(0 -233)"/></g><g id="Layer_3" data-name="Layer 3" class="cls-3"><path class="cls-4" d="M0,363.49a165.26,165.26,0,0,1,27-38.23C43.59,307.74,59.57,298.7,77,289c13.11-7.27,39.5-21.65,77-30.18,24-5.47,43.69-6,83-7,19.84-.53,35.19-.89,56,1s30.76,4.54,61,10.06c38.94,7.11,45.08,5.38,68,11.07,12.84,3.19,12.76,3.88,36,10.06,24.46,6.51,34.79,8.48,49,12.07,19.69,5,28.72,8.52,68,22.14,45.92,15.92,68.88,23.88,83,28.17,36.9,11.2,36.84,8.63,100,25.15,53.85,14.09,56.73,16.7,87,23.14a780.75,780.75,0,0,0,86,13.08c34.85,3.35,86,8,150,0,76.5-9.53,136.17-32.64,158-41.25,20.41-8.05,35.55-15.24,69-27.17,29.67-10.57,57.43-20.46,88-27.16,13.72-3,50.26-10.24,141-7,60.33,2.13,104.65,7.46,119,9.05,59,6.56,146,9.42,264-9.05v265.6H0Z" transform="translate(0 -233)"/></g><g id="Layer_2" data-name="Layer 2"><path class="cls-5" d="M0,409c8.6-.43,20.23-.86,34-1,17.24-.11,29.13-.19,44,1s15.81,2.25,60,8.64c17.35,2.51,17.22,2.34,27,3.84,27,4.13,47.17,8.37,53,9.6,16.27,3.43,30.18,7.08,58,14.39,19.5,5.12,35.6,9.56,67,18.23,32.32,8.93,29.42,8.25,45,12.48,34.08,9.25,41.12,10.64,69,18.23,31.51,8.59,26.23,7.8,54,15.36,46.29,12.59,77.26,19.26,86,21.11,18.59,4,33.71,6.72,39,7.68,9.78,1.78,19.85,3.42,40,6.72,17.34,2.83,24.06,3.84,31,4.8,2.17.3,11,1.5,23,2.88,8.44,1,22.44,2.46,40,3.83,7,.55,29.52,2.31,51,2.88a657.14,657.14,0,0,0,89-3.84c34.68-3.87,73.64-8.22,119-25,14.41-5.31,22.61-9.34,50-19.19,17-6.1,20.42-6.93,57-19.19,49-16.44,48.81-17,61-20.16a465.32,465.32,0,0,1,62-11.51c7.83-1,32.85-4.07,71-4.8,18.46-.36,41.45-.19,101,3.84s55.82,5.16,97,7.67c35,2.14,73,4.37,122,2.88,11.53-.35,43.25-1.5,83-5.76a1130.79,1130.79,0,0,0,187-36.46V600H0Z" transform="translate(0 -233)"/></g></svg>