<?xml version="1.0" encoding="utf-8"?>
<!-- Generator: Adobe Illustrator 23.0.0, SVG Export Plug-In . SVG Version: 6.00 Build 0)  -->
<svg version="1.1" id="Layer_1" xmlns="http://www.w3.org/2000/svg" xmlns:xlink="http://www.w3.org/1999/xlink" x="0px" y="0px"
	 viewBox="0 0 1920 367" style="enable-background:new 0 0 1920 367;" xml:space="preserve">
<style type="text/css">
	.st0{fill:#FFFFFF;}
	.st1{opacity:0.5;}
	.st2{fill:url(#SVGID_1_);}
	.st3{opacity:0.4;}
	.st4{fill:url(#SVGID_2_);}
	.st5{fill:url(#SVGID_3_);}
</style>
<rect class="st0" width="1920" height="367"/>
<g id="Layer_4" class="st1">
	
		<linearGradient id="SVGID_1_" gradientUnits="userSpaceOnUse" x1="0" y1="-40.075" x2="1920" y2="-40.075" gradientTransform="matrix(1 0 0 -1 0 135)">
		<stop  offset="0" style="stop-color:#FBC6C2"/>
		<stop  offset="1" style="stop-color:#FE8B8B"/>
	</linearGradient>
	<path class="st2" d="M0,16c10.4,1.6,24.9,4.1,42,8c16.3,3.8,28.5,7.5,38,10.3c34,10.3,53.7,16.3,86,27.6
		c35.5,12.4,61.2,22.4,104,39c26.5,10.3,57.4,22.6,64,25.3c44,17.5,44.8,18.2,58,23c11.1,4,32.9,10.8,76,24.1
		c49.3,15.3,54.6,16.7,64,18.4c14.1,2.6,24.5,3.5,47,8c18.5,3.7,31.7,7.2,35,8c22.9,5.8,101.3,18.4,190-4.6
		c38.8-10,67.2-23.9,124-51.7c44-21.5,60.1-32.9,102-48.3c46.8-17.1,81.3-22.8,90-24.1c35.6-5.6,62.3-5.1,91-4.6
		c40,0.7,72.6,4.7,99,8c31.9,4,30.8,5.2,56,8c31.9,3.6,63.9,5.2,96,4.6c37.6-0.7,75.1-4.5,112-11.5c0,0,93.3-18.2,236-74.7
		c9.9-4,20.4-6.7,31-8c5.4-0.7,17-2,29,0c23.4,4,40.6,19.5,50,29.9v285L0,350.3V16z"/>
</g>
<g id="Layer_3" class="st3">
	
		<linearGradient id="SVGID_2_" gradientUnits="userSpaceOnUse" x1="0" y1="-43.088" x2="1920" y2="-43.088" gradientTransform="matrix(1 0 0 -1 0 135)">
		<stop  offset="0" style="stop-color:#FBC6C2"/>
		<stop  offset="0.21" style="stop-color:#FCB9B6"/>
		<stop  offset="1" style="stop-color:#FE8B8B"/>
	</linearGradient>
	<path class="st4" d="M0,130.5c7.1-14,16.2-26.8,27-38.2C43.6,74.7,59.6,65.7,77,56c13.1-7.3,39.5-21.6,77-30.2c24-5.5,43.7-6,83-7
		c19.8-0.5,35.2-0.9,56,1s30.8,4.5,61,10.1c38.9,7.1,45.1,5.4,68,11.1c12.8,3.2,12.8,3.9,36,10.1c24.5,6.5,34.8,8.5,49,12.1
		c19.7,5,28.7,8.5,68,22.1c45.9,15.9,68.9,23.9,83,28.2c36.9,11.2,36.8,8.6,100,25.1c53.8,14.1,56.7,16.7,87,23.1
		c28.4,6,57.1,10.3,86,13.1c34.8,3.4,86,8,150,0c76.5-9.5,136.2-32.6,158-41.3c20.4-8,35.6-15.2,69-27.2
		c29.7-10.6,57.4-20.5,88-27.2c13.7-3,50.3-10.2,141-7c60.3,2.1,104.7,7.5,119,9c59,6.6,146,9.4,264-9v265.6H0V130.5z"/>
</g>
<g>
	
		<linearGradient id="SVGID_3_" gradientUnits="userSpaceOnUse" x1="0" y1="-135.9709" x2="1920" y2="-135.9709" gradientTransform="matrix(1 0 0 -1 0 135)">
		<stop  offset="0" style="stop-color:#FFCCC7"/>
		<stop  offset="0.33" style="stop-color:#FFB8B5"/>
		<stop  offset="1" style="stop-color:#FF9493"/>
	</linearGradient>
	<path class="st5" d="M0,176c8.6-0.4,20.2-0.9,34-1c17.2-0.1,29.1-0.2,44,1s15.8,2.3,60,8.6c17.4,2.5,17.2,2.3,27,3.8
		c27,4.1,47.2,8.4,53,9.6c16.3,3.4,30.2,7.1,58,14.4c19.5,5.1,35.6,9.6,67,18.2c32.3,8.9,29.4,8.3,45,12.5
		c34.1,9.3,41.1,10.6,69,18.2c31.5,8.6,26.2,7.8,54,15.4c46.3,12.6,77.3,19.3,86,21.1c18.6,4,33.7,6.7,39,7.7
		c9.8,1.8,19.8,3.4,40,6.7c17.3,2.8,24.1,3.8,31,4.8c2.2,0.3,11,1.5,23,2.9c8.4,1,22.4,2.5,40,3.8c7,0.5,29.5,2.3,51,2.9
		c29.7,0.7,59.5-0.5,89-3.8c34.7-3.9,73.6-8.2,119-25c14.4-5.3,22.6-9.3,50-19.2c17-6.1,20.4-6.9,57-19.2c49-16.4,48.8-17,61-20.2
		c20.4-5.2,41.1-9.1,62-11.5c7.8-1,32.8-4.1,71-4.8c18.5-0.4,41.4-0.2,101,3.8s55.8,5.2,97,7.7c35,2.1,73,4.4,122,2.9
		c11.5-0.4,43.3-1.5,83-5.8c63.2-6.9,125.8-19.1,187-36.5V367H0V176z"/>
</g>
</svg>
